<svg width="48" height="61" viewBox="0 0 48 61" fill="none" xmlns="http://www.w3.org/2000/svg">
<path fill-rule="evenodd" clip-rule="evenodd" d="M32.92 44.4847L31.5219 44.7928V46.6517C31.5219 49.8387 29.518 52.5497 26.722 53.5547V58.5597C26.722 59.9077 25.647 60.9997 24.322 60.9997C22.996 60.9997 21.921 59.9077 21.921 58.5597V53.5547C19.125 52.5497 17.1209 49.8387 17.1209 46.6517V44.9287C16.9129 44.8867 16.7039 44.8427 16.4959 44.7967L15.08 44.4847C8.16999 42.9627 2.70194 37.5967 0.961945 30.6297C-0.321055 25.4957 -0.321055 20.1177 0.961945 14.9837C2.70194 8.01774 8.16999 2.65076 15.08 1.12876L16.4959 0.81675C21.4409 -0.27225 26.559 -0.27225 31.504 0.81675L32.92 1.12876C39.83 2.65076 45.298 8.01772 47.038 14.9847C48.321 20.1177 48.321 25.4957 47.038 30.6297C45.298 37.5967 39.83 42.9627 32.92 44.4847ZM26.722 45.5077C26.443 45.5297 26.165 45.5477 25.886 45.5627C24.565 45.6347 23.242 45.6307 21.921 45.5517V46.6517C21.921 47.9987 22.996 49.0917 24.322 49.0917C25.647 49.0917 26.722 47.9987 26.722 46.6517V45.5077ZM26.801 13.1158C27.629 13.7888 27.764 15.0177 27.101 15.8587L23.196 20.8207H28.802C29.54 20.8207 30.213 21.2507 30.533 21.9277C30.852 22.6037 30.762 23.4067 30.301 23.9927L23.901 32.1257C23.238 32.9677 22.03 33.1038 21.202 32.4308C20.374 31.7568 20.2399 30.5287 20.9019 29.6867L24.807 24.7247H19.201C18.463 24.7247 17.79 24.2948 17.471 23.6188C17.151 22.9428 17.241 22.1397 17.702 21.5537L24.102 13.4208C24.765 12.5788 25.973 12.4418 26.801 13.1158Z" fill="#FCA311"/>
<path fill-rule="evenodd" clip-rule="evenodd" d="M32.92 44.4847L31.5219 44.7928V46.6517C31.5219 49.8387 29.518 52.5497 26.722 53.5547V58.5597C26.722 59.9077 25.647 60.9997 24.322 60.9997C22.996 60.9997 21.921 59.9077 21.921 58.5597V53.5547C19.125 52.5497 17.1209 49.8387 17.1209 46.6517V44.9287C16.9129 44.8867 16.7039 44.8427 16.4959 44.7967L15.08 44.4847C8.16999 42.9627 2.70194 37.5967 0.961945 30.6297C-0.321055 25.4957 -0.321055 20.1177 0.961945 14.9837C2.70194 8.01774 8.16999 2.65076 15.08 1.12876L16.4959 0.81675C21.4409 -0.27225 26.559 -0.27225 31.504 0.81675L32.92 1.12876C39.83 2.65076 45.298 8.01772 47.038 14.9847C48.321 20.1177 48.321 25.4957 47.038 30.6297C45.298 37.5967 39.83 42.9627 32.92 44.4847ZM26.722 45.5077C26.443 45.5297 26.165 45.5477 25.886 45.5627C24.565 45.6347 23.242 45.6307 21.921 45.5517V46.6517C21.921 47.9987 22.996 49.0917 24.322 49.0917C25.647 49.0917 26.722 47.9987 26.722 46.6517V45.5077ZM26.801 13.1158C27.629 13.7888 27.764 15.0177 27.101 15.8587L23.196 20.8207H28.802C29.54 20.8207 30.213 21.2507 30.533 21.9277C30.852 22.6037 30.762 23.4067 30.301 23.9927L23.901 32.1257C23.238 32.9677 22.03 33.1038 21.202 32.4308C20.374 31.7568 20.2399 30.5287 20.9019 29.6867L24.807 24.7247H19.201C18.463 24.7247 17.79 24.2948 17.471 23.6188C17.151 22.9428 17.241 22.1397 17.702 21.5537L24.102 13.4208C24.765 12.5788 25.973 12.4418 26.801 13.1158Z" fill="url(#paint0_linear_110_368)"/>
<defs>
<linearGradient id="paint0_linear_110_368" x1="-5.56954e-05" y1="-0.28225" x2="41.9359" y2="64.6348" gradientUnits="userSpaceOnUse">
<stop stop-color="#09C6F9"/>
<stop offset="1" stop-color="#045DE9"/>
</linearGradient>
</defs>
</svg>
