<svg width="32" height="32" viewBox="0 0 32 32" fill="none" xmlns="http://www.w3.org/2000/svg">
<path d="M16 32C24.8366 32 32 24.8366 32 16C32 7.16344 24.8366 0 16 0C7.16344 0 0 7.16344 0 16C0 24.8366 7.16344 32 16 32Z" fill="#FCA311"/>
<path d="M16 32C24.8366 32 32 24.8366 32 16C32 7.16344 24.8366 0 16 0C7.16344 0 0 7.16344 0 16C0 24.8366 7.16344 32 16 32Z" fill="url(#paint0_linear_110_360)"/>
<path d="M8.81601 20.0001V11.6001H14.24V12.8361H10.352V15.1881H13.496V16.4001H10.352V20.0001H8.81601ZM15.425 20.0001V11.6001H18.797C19.669 11.6001 20.333 11.8041 20.789 12.2121C21.253 12.6121 21.485 13.1281 21.485 13.7601C21.485 14.2881 21.341 14.7121 21.053 15.0321C20.773 15.3441 20.429 15.5562 20.021 15.6682C20.501 15.7642 20.897 16.0041 21.209 16.3881C21.521 16.7641 21.677 17.2041 21.677 17.7081C21.677 18.3721 21.437 18.9201 20.957 19.3521C20.477 19.7841 19.797 20.0001 18.917 20.0001H15.425ZM16.961 15.1281H18.569C19.001 15.1281 19.333 15.0281 19.565 14.8281C19.797 14.6281 19.913 14.3441 19.913 13.9761C19.913 13.6241 19.797 13.3481 19.565 13.1481C19.341 12.9401 19.001 12.8361 18.545 12.8361H16.961V15.1281ZM16.961 18.7521H18.677C19.133 18.7521 19.485 18.6481 19.733 18.4401C19.989 18.2241 20.117 17.9241 20.117 17.5401C20.117 17.1481 19.985 16.8401 19.721 16.6161C19.457 16.3921 19.101 16.2802 18.653 16.2802H16.961V18.7521Z" fill="white"/>
<defs>
<linearGradient id="paint0_linear_110_360" x1="1.92997e-07" y1="-0.148" x2="19.497" y2="38.207" gradientUnits="userSpaceOnUse">
<stop stop-color="#09C6F9"/>
<stop offset="1" stop-color="#045DE9"/>
</linearGradient>
</defs>
</svg>
