<svg width="48" height="48" viewBox="0 0 48 48" fill="none" xmlns="http://www.w3.org/2000/svg">
<path d="M13.843 0.41625C11.479 -0.13875 9.01902 -0.13875 6.65502 0.41625C3.55902 1.14225 1.14201 3.55926 0.416006 6.65526C-0.138994 9.01926 -0.138994 11.4793 0.416006 13.8433C1.14201 16.9393 3.55902 19.3572 6.65502 20.0832C9.01902 20.6372 11.479 20.6372 13.843 20.0832C16.939 19.3572 19.357 16.9393 20.083 13.8433C20.637 11.4793 20.637 9.01926 20.083 6.65526C19.357 3.55926 16.939 1.14225 13.843 0.41625Z" fill="#FCA311"/>
<path d="M13.843 0.41625C11.479 -0.13875 9.01902 -0.13875 6.65502 0.41625C3.55902 1.14225 1.14201 3.55926 0.416006 6.65526C-0.138994 9.01926 -0.138994 11.4793 0.416006 13.8433C1.14201 16.9393 3.55902 19.3572 6.65502 20.0832C9.01902 20.6372 11.479 20.6372 13.843 20.0832C16.939 19.3572 19.357 16.9393 20.083 13.8433C20.637 11.4793 20.637 9.01926 20.083 6.65526C19.357 3.55926 16.939 1.14225 13.843 0.41625Z" fill="url(#paint0_linear_110_369)"/>
<path d="M13.843 27.917C11.479 27.363 9.01902 27.363 6.65502 27.917C3.55902 28.643 1.14201 31.061 0.416006 34.157C-0.138994 36.521 -0.138994 38.9809 0.416006 41.3449C1.14201 44.4409 3.55902 46.858 6.65502 47.584C9.01902 48.139 11.479 48.139 13.843 47.584C16.939 46.858 19.357 44.4409 20.083 41.3449C20.637 38.9809 20.637 36.521 20.083 34.157C19.357 31.061 16.939 28.643 13.843 27.917Z" fill="#FCA311"/>
<path d="M13.843 27.917C11.479 27.363 9.01902 27.363 6.65502 27.917C3.55902 28.643 1.14201 31.061 0.416006 34.157C-0.138994 36.521 -0.138994 38.9809 0.416006 41.3449C1.14201 44.4409 3.55902 46.858 6.65502 47.584C9.01902 48.139 11.479 48.139 13.843 47.584C16.939 46.858 19.357 44.4409 20.083 41.3449C20.637 38.9809 20.637 36.521 20.083 34.157C19.357 31.061 16.939 28.643 13.843 27.917Z" fill="url(#paint1_linear_110_369)"/>
<path d="M41.3449 0.41625C38.9809 -0.13875 36.521 -0.13875 34.157 0.41625C31.061 1.14225 28.643 3.55926 27.917 6.65526C27.363 9.01926 27.363 11.4793 27.917 13.8433C28.643 16.9393 31.061 19.3572 34.157 20.0832C36.521 20.6372 38.9809 20.6372 41.3449 20.0832C44.4409 19.3572 46.858 16.9393 47.584 13.8433C48.139 11.4793 48.139 9.01926 47.584 6.65526C46.858 3.55926 44.4409 1.14225 41.3449 0.41625Z" fill="#FCA311"/>
<path d="M41.3449 0.41625C38.9809 -0.13875 36.521 -0.13875 34.157 0.41625C31.061 1.14225 28.643 3.55926 27.917 6.65526C27.363 9.01926 27.363 11.4793 27.917 13.8433C28.643 16.9393 31.061 19.3572 34.157 20.0832C36.521 20.6372 38.9809 20.6372 41.3449 20.0832C44.4409 19.3572 46.858 16.9393 47.584 13.8433C48.139 11.4793 48.139 9.01926 47.584 6.65526C46.858 3.55926 44.4409 1.14225 41.3449 0.41625Z" fill="url(#paint2_linear_110_369)"/>
<path d="M41.3449 27.917C38.9809 27.363 36.521 27.363 34.157 27.917C31.061 28.643 28.643 31.061 27.917 34.157C27.363 36.521 27.363 38.9809 27.917 41.3449C28.643 44.4409 31.061 46.858 34.157 47.584C36.521 48.139 38.9809 48.139 41.3449 47.584C44.4409 46.858 46.858 44.4409 47.584 41.3449C48.139 38.9809 48.139 36.521 47.584 34.157C46.858 31.061 44.4409 28.643 41.3449 27.917Z" fill="#FCA311"/>
<path d="M41.3449 27.917C38.9809 27.363 36.521 27.363 34.157 27.917C31.061 28.643 28.643 31.061 27.917 34.157C27.363 36.521 27.363 38.9809 27.917 41.3449C28.643 44.4409 31.061 46.858 34.157 47.584C36.521 48.139 38.9809 48.139 41.3449 47.584C44.4409 46.858 46.858 44.4409 47.584 41.3449C48.139 38.9809 48.139 36.521 47.584 34.157C46.858 31.061 44.4409 28.643 41.3449 27.917Z" fill="url(#paint3_linear_110_369)"/>
<defs>
<linearGradient id="paint0_linear_110_369" x1="6.62641e-06" y1="-0.22175" x2="29.245" y2="57.3112" gradientUnits="userSpaceOnUse">
<stop stop-color="#09C6F9"/>
<stop offset="1" stop-color="#045DE9"/>
</linearGradient>
<linearGradient id="paint1_linear_110_369" x1="6.38574e-06" y1="-0.222025" x2="29.245" y2="57.311" gradientUnits="userSpaceOnUse">
<stop stop-color="#09C6F9"/>
<stop offset="1" stop-color="#045DE9"/>
</linearGradient>
<linearGradient id="paint2_linear_110_369" x1="-2.5524e-05" y1="-0.22175" x2="29.245" y2="57.3112" gradientUnits="userSpaceOnUse">
<stop stop-color="#09C6F9"/>
<stop offset="1" stop-color="#045DE9"/>
</linearGradient>
<linearGradient id="paint3_linear_110_369" x1="-2.61389e-05" y1="-0.222024" x2="29.245" y2="57.311" gradientUnits="userSpaceOnUse">
<stop stop-color="#09C6F9"/>
<stop offset="1" stop-color="#045DE9"/>
</linearGradient>
</defs>
</svg>
