<svg width="32" height="32" viewBox="0 0 32 32" fill="none" xmlns="http://www.w3.org/2000/svg">
<path d="M16 32C24.8366 32 32 24.8366 32 16C32 7.16344 24.8366 0 16 0C7.16344 0 0 7.16344 0 16C0 24.8366 7.16344 32 16 32Z" fill="#FCA311"/>
<path d="M16 32C24.8366 32 32 24.8366 32 16C32 7.16344 24.8366 0 16 0C7.16344 0 0 7.16344 0 16C0 24.8366 7.16344 32 16 32Z" fill="url(#paint0_linear_110_361)"/>
<path d="M9.81601 20.0001V11.6H11.352V20.0001H9.81601ZM16.652 20.144C15.86 20.144 15.168 19.9641 14.576 19.6041C13.984 19.2441 13.524 18.7441 13.196 18.1041C12.868 17.4561 12.704 16.7041 12.704 15.8481C12.704 14.9841 12.872 14.2241 13.208 13.5681C13.552 12.9041 14.036 12.3881 14.66 12.0201C15.292 11.6441 16.04 11.4561 16.904 11.4561C17.888 11.4561 18.704 11.6921 19.352 12.1641C20 12.6361 20.42 13.2881 20.612 14.1201H18.896C18.768 13.7281 18.536 13.4241 18.2 13.2081C17.864 12.9841 17.432 12.8721 16.904 12.8721C16.064 12.8721 15.416 13.1401 14.96 13.6761C14.504 14.2041 14.276 14.932 14.276 15.86C14.276 16.788 14.5 17.5081 14.948 18.0201C15.404 18.5241 16.02 18.7761 16.796 18.7761C17.556 18.7761 18.128 18.5721 18.512 18.1641C18.904 17.7481 19.14 17.204 19.22 16.532H17.096V15.3801H20.768V20.0001H19.352L19.232 18.8961C18.96 19.2961 18.62 19.6041 18.212 19.8201C17.804 20.0361 17.284 20.144 16.652 20.144Z" fill="white"/>
<defs>
<linearGradient id="paint0_linear_110_361" x1="1.92997e-07" y1="-0.148" x2="19.497" y2="38.207" gradientUnits="userSpaceOnUse">
<stop stop-color="#09C6F9"/>
<stop offset="1" stop-color="#045DE9"/>
</linearGradient>
</defs>
</svg>
