<svg width="48" height="48" viewBox="0 0 48 48" fill="none" xmlns="http://www.w3.org/2000/svg">
<path fill-rule="evenodd" clip-rule="evenodd" d="M16.079 0.91725C21.289 -0.30575 26.711 -0.30575 31.921 0.91725C39.444 2.68125 45.319 8.55624 47.083 16.0792C48.306 21.2892 48.306 26.7113 47.083 31.9213C45.319 39.4443 39.444 45.3193 31.921 47.0833C26.711 48.3063 21.289 48.3063 16.079 47.0833C8.55599 45.3193 2.68101 39.4443 0.917006 31.9213C-0.305994 26.7113 -0.305994 21.2892 0.917006 16.0792C2.68101 8.55624 8.55599 2.68125 16.079 0.91725ZM27.973 18.7003C28.807 18.3663 29.634 19.1932 29.301 20.0272L27.22 25.2293C26.857 26.1373 26.137 26.8562 25.229 27.2202L20.027 29.3002C19.194 29.6342 18.366 28.8073 18.7 27.9733L20.781 22.7713C21.144 21.8633 21.863 21.1443 22.772 20.7803L27.973 18.7003ZM32.145 21.1652C33.479 17.8302 30.17 14.5222 26.836 15.8552L21.634 17.9362C19.947 18.6112 18.611 19.9472 17.936 21.6342L15.856 26.8353C14.522 30.1703 17.831 33.4783 21.165 32.1453L26.367 30.0643C28.053 29.3893 29.39 28.0533 30.064 26.3663L32.145 21.1652Z" fill="#FCA311"/>
<path fill-rule="evenodd" clip-rule="evenodd" d="M16.079 0.91725C21.289 -0.30575 26.711 -0.30575 31.921 0.91725C39.444 2.68125 45.319 8.55624 47.083 16.0792C48.306 21.2892 48.306 26.7113 47.083 31.9213C45.319 39.4443 39.444 45.3193 31.921 47.0833C26.711 48.3063 21.289 48.3063 16.079 47.0833C8.55599 45.3193 2.68101 39.4443 0.917006 31.9213C-0.305994 26.7113 -0.305994 21.2892 0.917006 16.0792C2.68101 8.55624 8.55599 2.68125 16.079 0.91725ZM27.973 18.7003C28.807 18.3663 29.634 19.1932 29.301 20.0272L27.22 25.2293C26.857 26.1373 26.137 26.8562 25.229 27.2202L20.027 29.3002C19.194 29.6342 18.366 28.8073 18.7 27.9733L20.781 22.7713C21.144 21.8633 21.863 21.1443 22.772 20.7803L27.973 18.7003ZM32.145 21.1652C33.479 17.8302 30.17 14.5222 26.836 15.8552L21.634 17.9362C19.947 18.6112 18.611 19.9472 17.936 21.6342L15.856 26.8353C14.522 30.1703 17.831 33.4783 21.165 32.1453L26.367 30.0643C28.053 29.3893 29.39 28.0533 30.064 26.3663L32.145 21.1652Z" fill="url(#paint0_linear_110_366)"/>
<defs>
<linearGradient id="paint0_linear_110_366" x1="6.62744e-06" y1="-0.22175" x2="29.245" y2="57.3113" gradientUnits="userSpaceOnUse">
<stop stop-color="#09C6F9"/>
<stop offset="1" stop-color="#045DE9"/>
</linearGradient>
</defs>
</svg>
