<svg width="48" height="48" viewBox="0 0 48 48" fill="none" xmlns="http://www.w3.org/2000/svg">
<path d="M22.085 0V14.406H1.37799C3.56499 7.66801 9.11598 2.50303 16.079 0.866028C18.059 0.400028 20.068 0.112 22.085 0Z" fill="#FCA311"/>
<path d="M22.085 0V14.406H1.37799C3.56499 7.66801 9.11598 2.50303 16.079 0.866028C18.059 0.400028 20.068 0.112 22.085 0Z" fill="url(#paint0_linear_110_367)"/>
<path d="M25.915 0V29.756H47.521C48.282 25.215 48.136 20.56 47.083 16.062C45.319 8.52201 39.444 2.63403 31.921 0.866028C29.942 0.400028 27.932 0.112 25.915 0Z" fill="#FCA311"/>
<path d="M25.915 0V29.756H47.521C48.282 25.215 48.136 20.56 47.083 16.062C45.319 8.52201 39.444 2.63403 31.921 0.866028C29.942 0.400028 27.932 0.112 25.915 0Z" fill="url(#paint1_linear_110_367)"/>
<path d="M46.622 33.5938H25.915V47.9998C27.932 47.8878 29.942 47.5997 31.921 47.1337C38.884 45.4967 44.435 40.3317 46.622 33.5938Z" fill="#FCA311"/>
<path d="M46.622 33.5938H25.915V47.9998C27.932 47.8878 29.942 47.5997 31.921 47.1337C38.884 45.4967 44.435 40.3317 46.622 33.5938Z" fill="url(#paint2_linear_110_367)"/>
<path d="M22.085 48.0001V18.2441H0.479003C-0.281997 22.7851 -0.136009 27.4401 0.916991 31.9381C2.68099 39.4781 8.55598 45.3661 16.079 47.1341C18.059 47.6001 20.068 47.8881 22.085 48.0001Z" fill="#FCA311"/>
<path d="M22.085 48.0001V18.2441H0.479003C-0.281997 22.7851 -0.136009 27.4401 0.916991 31.9381C2.68099 39.4781 8.55598 45.3661 16.079 47.1341C18.059 47.6001 20.068 47.8881 22.085 48.0001Z" fill="url(#paint3_linear_110_367)"/>
<defs>
<linearGradient id="paint0_linear_110_367" x1="-1.11289e-05" y1="-0.222" x2="29.245" y2="57.311" gradientUnits="userSpaceOnUse">
<stop stop-color="#09C6F9"/>
<stop offset="1" stop-color="#045DE9"/>
</linearGradient>
<linearGradient id="paint1_linear_110_367" x1="-4.84376e-05" y1="-0.221999" x2="29.2449" y2="57.311" gradientUnits="userSpaceOnUse">
<stop stop-color="#09C6F9"/>
<stop offset="1" stop-color="#045DE9"/>
</linearGradient>
<linearGradient id="paint2_linear_110_367" x1="-6.21255e-05" y1="-0.222266" x2="29.2449" y2="57.3108" gradientUnits="userSpaceOnUse">
<stop stop-color="#09C6F9"/>
<stop offset="1" stop-color="#045DE9"/>
</linearGradient>
<linearGradient id="paint3_linear_110_367" x1="-2.63213e-06" y1="-0.221847" x2="29.245" y2="57.3112" gradientUnits="userSpaceOnUse">
<stop stop-color="#09C6F9"/>
<stop offset="1" stop-color="#045DE9"/>
</linearGradient>
</defs>
</svg>
