<svg width="544" height="420" viewBox="0 0 544 420" fill="none" xmlns="http://www.w3.org/2000/svg">
<path d="M87.3412 109.43C88.0196 102.906 90.3363 96.6602 94.0756 91.2732C97.8149 85.8862 102.856 81.5332 108.728 78.6192C114.6 75.7052 121.114 74.3252 127.663 74.6072C134.211 74.8892 140.582 76.8252 146.182 80.2342C151.258 76.6642 157.163 74.4542 163.334 73.8142C169.505 73.1732 175.737 74.1242 181.437 76.5752C187.137 79.0272 192.115 82.8972 195.897 87.8182C199.68 92.7392 202.141 98.5472 203.047 104.688C212.283 106.835 220.407 112.307 225.872 120.061C231.337 127.815 233.761 137.31 232.682 146.737C231.603 156.164 227.097 164.865 220.022 171.182C212.946 177.499 203.796 180.991 194.314 180.993H101.382C92.7694 180.999 84.4232 178.01 77.7719 172.535C71.1206 167.061 66.578 159.444 64.922 150.987C63.266 142.53 64.5996 133.76 68.6945 126.179C72.7895 118.597 79.3909 112.677 87.3683 109.43H87.3412Z" fill="#66C5FF"/>
<path opacity="0.6" d="M182.007 138.952C182.927 134.524 182.927 129.954 182.007 125.526L176.754 124.781C176.165 122.622 175.305 120.546 174.195 118.603L177.376 114.349C174.908 110.565 171.68 107.335 167.899 104.865L163.661 108.021C161.712 106.913 159.634 106.048 157.474 105.447L156.743 100.204C152.309 99.2832 147.733 99.2832 143.299 100.204L142.554 105.447C140.394 106.048 138.316 106.913 136.367 108.021L132.115 104.838C128.341 107.317 125.116 110.545 122.638 114.321L125.82 118.589C124.709 120.532 123.85 122.608 123.261 124.767L118.008 125.512C117.087 129.94 117.087 134.511 118.008 138.939L123.261 139.698C123.853 141.853 124.718 143.925 125.833 145.862L122.638 150.143C125.116 153.92 128.341 157.148 132.115 159.627L136.367 156.43C138.316 157.534 140.394 158.394 142.554 158.99L143.299 164.261C147.728 165.182 152.3 165.182 156.729 164.261L157.474 158.99C159.634 158.394 161.712 157.534 163.661 156.43L167.913 159.627C171.687 157.148 174.912 153.92 177.39 150.143L174.195 145.876C175.308 143.932 176.172 141.857 176.767 139.698L182.007 138.952ZM149.987 148.084C146.864 148.087 143.811 147.162 141.213 145.428C138.615 143.694 136.589 141.228 135.392 138.341C134.195 135.455 133.881 132.278 134.489 129.213C135.096 126.148 136.599 123.332 138.806 121.121C141.013 118.91 143.826 117.404 146.889 116.794C149.951 116.183 153.126 116.495 156.012 117.69C158.897 118.886 161.363 120.91 163.098 123.509C164.834 126.107 165.76 129.162 165.76 132.287C165.762 134.36 165.355 136.414 164.563 138.331C163.771 140.247 162.61 141.989 161.145 143.456C159.68 144.923 157.941 146.087 156.026 146.881C154.112 147.675 152.059 148.084 149.987 148.084Z" fill="white"/>
<path d="M299.147 72.8233C299.829 66.3003 302.148 60.0568 305.888 54.6717C309.628 49.2866 314.667 44.9351 320.539 42.0218C326.41 39.1085 332.922 37.728 339.469 38.0085C346.017 38.289 352.387 40.2214 357.988 43.6262C363.066 40.0604 368.971 37.8538 375.142 37.2162C381.312 36.5786 387.543 37.5312 393.242 39.9835C398.941 42.4357 403.918 46.306 407.701 51.2264C411.483 56.1467 413.945 61.9533 414.852 68.0943C424.089 70.2423 432.214 75.7143 437.679 83.4703C443.144 91.2263 445.567 100.722 444.487 110.15C443.406 119.578 438.897 128.279 431.819 134.595C424.741 140.911 415.589 144.4 406.106 144.399H313.173C304.563 144.4 296.22 141.407 289.571 135.933C282.923 130.458 278.381 122.842 276.724 114.387C275.067 105.932 276.398 97.1643 280.488 89.5823C284.578 82.0003 291.174 76.0763 299.147 72.8233Z" fill="#66C5FF"/>
<g opacity="0.6">
<path d="M343.812 105.745C343.812 100.529 346.601 97.6162 350.338 97.6162C354.075 97.6162 356.864 100.583 356.864 105.745C356.864 110.907 354.075 113.874 350.338 113.874C346.601 113.874 343.812 110.961 343.812 105.745ZM354.576 105.745C354.576 101.681 352.829 99.5942 350.338 99.5942C347.847 99.5942 346.087 101.654 346.087 105.745C346.087 109.837 347.833 111.896 350.338 111.896C352.843 111.896 354.562 109.837 354.562 105.745H354.576Z" fill="white"/>
<path d="M359.057 105.745C359.057 100.529 361.846 97.6162 365.597 97.6162C369.347 97.6162 372.109 100.583 372.109 105.745C372.109 110.907 369.32 113.874 365.597 113.874C361.873 113.874 359.057 110.961 359.057 105.745ZM369.821 105.745C369.821 101.681 368.088 99.5942 365.597 99.5942C363.106 99.5942 361.345 101.654 361.345 105.745C361.345 109.837 363.078 111.896 365.597 111.896C368.115 111.896 369.821 109.837 369.821 105.745Z" fill="white"/>
<path d="M379.204 97.7383V113.752H376.942V99.7303H373.328V97.7383H379.204Z" fill="white"/>
<path d="M382.71 105.745C382.71 100.529 385.499 97.6162 389.249 97.6162C393 97.6162 395.762 100.583 395.762 105.745C395.762 110.907 392.973 113.874 389.249 113.874C385.526 113.874 382.71 110.961 382.71 105.745ZM393.474 105.745C393.474 101.681 391.741 99.5942 389.249 99.5942C386.758 99.5942 384.998 101.654 384.998 105.745C384.998 109.837 386.731 111.896 389.249 111.896C391.768 111.896 393.474 109.837 393.474 105.745Z" fill="white"/>
<path d="M402.856 97.7383V113.752H400.595V99.7303H396.994V97.7383H402.856Z" fill="white"/>
<path d="M406.349 105.745C406.349 100.529 409.138 97.6162 412.889 97.6162C416.639 97.6162 419.401 100.583 419.401 105.745C419.401 110.907 416.612 113.874 412.889 113.874C409.165 113.874 406.349 110.961 406.349 105.745ZM417.113 105.745C417.113 101.681 415.38 99.5942 412.889 99.5942C410.398 99.5942 408.637 101.654 408.637 105.745C408.637 109.837 410.37 111.896 412.889 111.896C415.407 111.896 417.113 109.837 417.113 105.745Z" fill="white"/>
<path d="M426.495 97.7383V113.752H424.234V99.7303H420.62V97.7383H426.495Z" fill="white"/>
</g>
<path d="M178.135 280.858C178.134 272.068 175.333 263.507 170.141 256.418C164.948 249.328 157.632 244.079 149.256 241.432C148.422 234.853 145.923 228.595 141.996 223.253C138.068 217.91 132.843 213.659 126.814 210.904C120.786 208.148 114.154 206.978 107.547 207.505C100.94 208.032 94.5768 210.239 89.0607 213.916C83.5435 210.239 77.1799 208.033 70.5724 207.506C63.965 206.98 57.3326 208.149 51.3032 210.905C45.2739 213.661 40.0474 217.911 36.1186 223.253C32.1897 228.595 29.6888 234.852 28.8524 241.432C19.4502 244.408 11.4219 250.651 6.21864 259.033C1.01533 267.416 -1.01964 277.384 0.481543 287.137C1.98272 296.89 6.92101 305.784 14.4038 312.211C21.8866 318.638 31.4202 322.174 41.2813 322.181H137.734C148.529 321.943 158.802 317.486 166.354 309.762C173.905 302.039 178.134 291.663 178.135 280.858Z" fill="#24A7FF"/>
<path d="M88.7087 213.753C83.1839 210.153 76.8357 208.016 70.2597 207.542C63.6836 207.069 57.0952 208.275 51.1123 211.047C45.1295 213.819 39.9483 218.066 36.0548 223.391C32.1613 228.715 29.683 234.941 28.8524 241.487C19.4502 244.462 11.4219 250.705 6.21864 259.088C1.01533 267.47 -1.01964 277.439 0.481543 287.191C1.98272 296.944 6.92101 305.838 14.4038 312.265C21.8866 318.692 31.4202 322.229 41.2813 322.235H70.2414L88.7087 213.753Z" fill="#3BB0FF"/>
<path d="M189.629 302.048H84.2545V309.892H189.629V302.048Z" fill="#3D4959"/>
<path d="M189.629 264.017H84.2545V271.862H189.629V264.017Z" fill="#3D4959"/>
<path d="M194.341 307.955H79.0825C76.084 307.955 73.6533 310.387 73.6533 313.388V337.788C73.6533 340.789 76.084 343.221 79.0825 343.221H194.341C197.339 343.221 199.77 340.789 199.77 337.788V313.388C199.77 310.387 197.339 307.955 194.341 307.955Z" fill="#D6E0EA"/>
<path d="M125.996 307.955L120.255 343.181H79.0825C77.6462 343.181 76.2687 342.61 75.253 341.593C74.2374 340.577 73.6668 339.199 73.6668 337.761V313.374C73.6668 311.937 74.2374 310.558 75.253 309.542C76.2687 308.526 77.6462 307.955 79.0825 307.955H125.996Z" fill="#EDEDED"/>
<path d="M192.012 335.458V315.718H81.4113V335.458H192.012Z" fill="#3D4959"/>
<path d="M183.293 325.568C183.296 326.241 183.099 326.9 182.727 327.461C182.355 328.022 181.825 328.46 181.205 328.719C180.584 328.979 179.9 329.048 179.24 328.918C178.58 328.789 177.973 328.466 177.497 327.991C177.02 327.516 176.695 326.91 176.563 326.25C176.431 325.59 176.497 324.905 176.754 324.283C177.011 323.661 177.446 323.129 178.005 322.755C178.564 322.38 179.222 322.181 179.895 322.181C180.794 322.181 181.656 322.537 182.293 323.172C182.93 323.807 183.289 324.668 183.293 325.568Z" fill="#24A7FF"/>
<path d="M168.617 325.568C168.617 326.144 168.446 326.707 168.126 327.186C167.806 327.665 167.352 328.038 166.82 328.259C166.288 328.479 165.703 328.537 165.138 328.425C164.573 328.312 164.055 328.035 163.648 327.627C163.24 327.22 162.963 326.701 162.851 326.136C162.739 325.571 162.796 324.985 163.017 324.453C163.237 323.921 163.61 323.466 164.089 323.146C164.567 322.826 165.13 322.655 165.706 322.655C166.478 322.655 167.218 322.962 167.764 323.508C168.31 324.054 168.617 324.795 168.617 325.568Z" fill="#24A7FF"/>
<path d="M154.428 325.568C154.428 326.144 154.257 326.707 153.937 327.186C153.617 327.665 153.163 328.038 152.631 328.259C152.099 328.479 151.514 328.537 150.949 328.425C150.384 328.312 149.866 328.035 149.459 327.627C149.051 327.22 148.774 326.701 148.662 326.136C148.55 325.571 148.607 324.985 148.828 324.453C149.048 323.921 149.421 323.466 149.9 323.146C150.378 322.826 150.941 322.655 151.517 322.655C152.289 322.655 153.029 322.962 153.575 323.508C154.121 324.054 154.428 324.795 154.428 325.568Z" fill="white"/>
<path d="M140.239 325.568C140.239 326.144 140.068 326.707 139.748 327.186C139.428 327.665 138.974 328.038 138.442 328.259C137.91 328.479 137.325 328.537 136.76 328.425C136.195 328.312 135.677 328.035 135.27 327.627C134.862 327.22 134.585 326.701 134.473 326.136C134.361 325.571 134.418 324.985 134.639 324.453C134.859 323.921 135.232 323.466 135.711 323.146C136.189 322.826 136.752 322.655 137.328 322.655C138.1 322.655 138.84 322.962 139.386 323.508C139.932 324.054 140.239 324.795 140.239 325.568Z" fill="#24A7FF"/>
<path d="M126.05 325.568C126.05 326.144 125.879 326.707 125.559 327.186C125.239 327.665 124.785 328.038 124.253 328.259C123.721 328.479 123.136 328.537 122.571 328.425C122.006 328.312 121.488 328.035 121.081 327.627C120.673 327.22 120.396 326.701 120.284 326.136C120.172 325.571 120.229 324.985 120.45 324.453C120.67 323.921 121.043 323.466 121.522 323.146C122 322.826 122.563 322.655 123.139 322.655C123.911 322.655 124.651 322.962 125.197 323.508C125.743 324.054 126.05 324.795 126.05 325.568Z" fill="white"/>
<path d="M194.341 269.328H79.0825C76.084 269.328 73.6533 271.761 73.6533 274.761V299.162C73.6533 302.162 76.084 304.595 79.0825 304.595H194.341C197.339 304.595 199.77 302.162 199.77 299.162V274.761C199.77 271.761 197.339 269.328 194.341 269.328Z" fill="#D6E0EA"/>
<path d="M132.278 269.328L126.551 304.554H79.0825C77.6462 304.554 76.2687 303.983 75.253 302.967C74.2374 301.951 73.6668 300.572 73.6668 299.135V274.748C73.6668 273.31 74.2374 271.932 75.253 270.916C76.2687 269.899 77.6462 269.328 79.0825 269.328H132.278Z" fill="#EDEDED"/>
<path d="M192.012 296.832V277.092H81.4111V296.832H192.012Z" fill="#3D4959"/>
<path d="M194.341 231.298H79.0825C76.084 231.298 73.6533 233.73 73.6533 236.731V261.132C73.6533 264.132 76.084 266.565 79.0825 266.565H194.341C197.339 266.565 199.77 264.132 199.77 261.132V236.731C199.77 233.73 197.339 231.298 194.341 231.298Z" fill="#D6E0EA"/>
<path d="M138.479 231.298L132.738 266.524H79.0825C77.6462 266.524 76.2687 265.953 75.253 264.937C74.2374 263.92 73.6668 262.542 73.6668 261.105V236.717C73.6668 235.28 74.2374 233.902 75.253 232.885C76.2687 231.869 77.6462 231.298 79.0825 231.298H138.479Z" fill="#EDEDED"/>
<path d="M192.026 258.815V239.075H81.4246V258.815H192.026Z" fill="#3D4959"/>
<path d="M179.895 290.355C181.772 290.355 183.293 288.833 183.293 286.955C183.293 285.077 181.772 283.554 179.895 283.554C178.018 283.554 176.496 285.077 176.496 286.955C176.496 288.833 178.018 290.355 179.895 290.355Z" fill="#24A7FF"/>
<path d="M168.617 286.955C168.617 287.531 168.446 288.094 168.126 288.573C167.806 289.052 167.352 289.426 166.82 289.646C166.288 289.867 165.703 289.924 165.138 289.812C164.573 289.699 164.055 289.422 163.648 289.015C163.24 288.607 162.963 288.088 162.851 287.523C162.739 286.958 162.796 286.372 163.017 285.84C163.237 285.308 163.61 284.853 164.089 284.533C164.567 284.213 165.13 284.042 165.706 284.042C166.478 284.042 167.218 284.349 167.764 284.895C168.31 285.441 168.617 286.182 168.617 286.955Z" fill="#24A7FF"/>
<path d="M154.428 286.955C154.428 287.531 154.257 288.094 153.937 288.573C153.617 289.052 153.163 289.426 152.631 289.646C152.099 289.867 151.514 289.924 150.949 289.812C150.384 289.699 149.866 289.422 149.459 289.015C149.051 288.607 148.774 288.088 148.662 287.523C148.55 286.958 148.607 286.372 148.828 285.84C149.048 285.308 149.421 284.853 149.9 284.533C150.378 284.213 150.941 284.042 151.517 284.042C152.289 284.042 153.029 284.349 153.575 284.895C154.121 285.441 154.428 286.182 154.428 286.955Z" fill="white"/>
<path d="M140.239 286.955C140.239 287.531 140.068 288.094 139.748 288.573C139.428 289.052 138.974 289.426 138.442 289.646C137.91 289.867 137.325 289.924 136.76 289.812C136.195 289.699 135.677 289.422 135.27 289.015C134.862 288.607 134.585 288.088 134.473 287.523C134.361 286.958 134.418 286.372 134.639 285.84C134.859 285.308 135.232 284.853 135.711 284.533C136.189 284.213 136.752 284.042 137.328 284.042C138.1 284.042 138.84 284.349 139.386 284.895C139.932 285.441 140.239 286.182 140.239 286.955Z" fill="#24A7FF"/>
<path d="M126.05 286.955C126.05 287.531 125.879 288.094 125.559 288.573C125.239 289.052 124.785 289.426 124.253 289.646C123.721 289.867 123.136 289.924 122.571 289.812C122.006 289.699 121.488 289.422 121.081 289.015C120.673 288.607 120.396 288.088 120.284 287.523C120.172 286.958 120.229 286.372 120.45 285.84C120.67 285.308 121.043 284.853 121.522 284.533C122 284.213 122.563 284.042 123.139 284.042C123.911 284.042 124.651 284.349 125.197 284.895C125.743 285.441 126.05 286.182 126.05 286.955Z" fill="white"/>
<path d="M183.293 248.938C183.293 249.611 183.094 250.268 182.72 250.827C182.347 251.387 181.816 251.822 181.195 252.08C180.574 252.337 179.891 252.405 179.232 252.273C178.573 252.142 177.967 251.818 177.492 251.343C177.017 250.867 176.693 250.261 176.562 249.601C176.431 248.942 176.498 248.258 176.755 247.637C177.012 247.015 177.448 246.484 178.007 246.11C178.566 245.737 179.223 245.537 179.895 245.537C180.796 245.537 181.66 245.896 182.298 246.533C182.935 247.171 183.293 248.036 183.293 248.938Z" fill="#24A7FF"/>
<path d="M168.617 248.938C168.617 249.514 168.446 250.077 168.126 250.556C167.806 251.035 167.352 251.409 166.82 251.629C166.288 251.85 165.703 251.907 165.138 251.795C164.573 251.683 164.055 251.405 163.648 250.998C163.24 250.59 162.963 250.071 162.851 249.506C162.739 248.941 162.796 248.356 163.017 247.823C163.237 247.291 163.61 246.836 164.089 246.516C164.567 246.196 165.13 246.025 165.706 246.025C166.478 246.025 167.218 246.332 167.764 246.878C168.31 247.425 168.617 248.165 168.617 248.938Z" fill="white"/>
<path d="M154.428 248.938C154.428 249.514 154.257 250.077 153.937 250.556C153.617 251.035 153.163 251.409 152.631 251.629C152.099 251.85 151.514 251.907 150.949 251.795C150.384 251.683 149.866 251.405 149.459 250.998C149.051 250.59 148.774 250.071 148.662 249.506C148.55 248.941 148.607 248.356 148.828 247.823C149.048 247.291 149.421 246.836 149.9 246.516C150.378 246.196 150.941 246.025 151.517 246.025C152.289 246.025 153.029 246.332 153.575 246.878C154.121 247.425 154.428 248.165 154.428 248.938Z" fill="white"/>
<path d="M140.239 248.938C140.239 249.514 140.068 250.077 139.748 250.556C139.428 251.035 138.974 251.409 138.442 251.629C137.91 251.85 137.325 251.907 136.76 251.795C136.195 251.683 135.677 251.405 135.27 250.998C134.862 250.59 134.585 250.071 134.473 249.506C134.361 248.941 134.418 248.356 134.639 247.823C134.859 247.291 135.232 246.836 135.711 246.516C136.189 246.196 136.752 246.025 137.328 246.025C138.1 246.025 138.84 246.332 139.386 246.878C139.932 247.425 140.239 248.165 140.239 248.938Z" fill="#24A7FF"/>
<path d="M126.05 248.938C126.05 249.514 125.879 250.077 125.559 250.556C125.239 251.035 124.785 251.409 124.253 251.629C123.721 251.85 123.136 251.907 122.571 251.795C122.006 251.683 121.488 251.405 121.081 250.998C120.673 250.59 120.396 250.071 120.284 249.506C120.172 248.941 120.229 248.356 120.45 247.823C120.67 247.291 121.043 246.836 121.522 246.516C122 246.196 122.563 246.025 123.139 246.025C123.911 246.025 124.651 246.332 125.197 246.878C125.743 247.425 126.05 248.165 126.05 248.938Z" fill="#24A7FF"/>
<path d="M346.249 289.597C346.255 282.651 344.047 275.885 339.947 270.281C335.847 264.677 330.068 260.528 323.45 258.435C322.785 253.243 320.806 248.307 317.702 244.094C314.598 239.881 310.47 236.53 305.71 234.359C300.95 232.189 295.715 231.27 290.501 231.689C285.287 232.109 280.266 233.854 275.914 236.758C271.563 233.853 266.543 232.108 261.329 231.688C256.116 231.268 250.881 232.187 246.122 234.358C241.363 236.529 237.236 239.88 234.134 244.093C231.031 248.307 229.054 253.244 228.392 258.435C220.957 260.775 214.606 265.702 210.488 272.324C206.369 278.945 204.757 286.823 205.942 294.531C207.126 302.24 211.03 309.269 216.947 314.346C222.863 319.422 230.4 322.211 238.194 322.208H314.365C322.885 322.023 330.995 318.506 336.955 312.411C342.915 306.315 346.251 298.125 346.249 289.597Z" fill="#24A7FF"/>
<path d="M275.643 236.568C271.282 233.724 266.27 232.035 261.078 231.661C255.886 231.286 250.684 232.238 245.961 234.426C241.237 236.615 237.147 239.969 234.074 244.174C231 248.378 229.045 253.295 228.392 258.463C220.957 260.803 214.606 265.73 210.488 272.351C206.369 278.972 204.757 286.85 205.942 294.559C207.126 302.267 211.03 309.296 216.947 314.373C222.863 319.45 230.4 322.239 238.194 322.235H261.143L275.643 236.568Z" fill="#3BB0FF"/>
<path d="M328.838 358.314H223.464V366.159H328.838V358.314Z" fill="#3D4959"/>
<path d="M328.838 320.297H223.464V328.142H328.838V320.297Z" fill="#3D4959"/>
<path d="M333.55 364.221H218.292C215.293 364.221 212.862 366.654 212.862 369.654V394.055C212.862 397.055 215.293 399.488 218.292 399.488H333.55C336.548 399.488 338.979 397.055 338.979 394.055V369.654C338.979 366.654 336.548 364.221 333.55 364.221Z" fill="#D6E0EA"/>
<path d="M265.205 364.221L259.464 399.447H218.305C216.869 399.447 215.491 398.876 214.476 397.86C213.46 396.844 212.89 395.465 212.89 394.028V369.641C212.89 368.203 213.46 366.825 214.476 365.809C215.491 364.792 216.869 364.221 218.305 364.221H265.205Z" fill="#EDEDED"/>
<path d="M331.208 391.738V371.998H220.607V391.738H331.208Z" fill="#3D4959"/>
<path d="M322.488 381.861C322.478 382.531 322.269 383.184 321.889 383.736C321.51 384.288 320.975 384.715 320.353 384.964C319.731 385.213 319.05 385.273 318.394 385.136C317.739 384.998 317.138 384.67 316.668 384.193C316.199 383.715 315.88 383.109 315.753 382.451C315.627 381.793 315.697 381.112 315.956 380.494C316.215 379.875 316.65 379.347 317.208 378.976C317.765 378.605 318.42 378.407 319.09 378.406C319.541 378.406 319.987 378.496 320.403 378.67C320.819 378.845 321.196 379.1 321.512 379.422C321.829 379.743 322.078 380.124 322.245 380.543C322.413 380.962 322.495 381.41 322.488 381.861Z" fill="#24A7FF"/>
<path d="M307.812 381.861C307.812 382.437 307.641 383.001 307.321 383.48C307.002 383.959 306.547 384.332 306.015 384.552C305.483 384.773 304.898 384.831 304.333 384.718C303.768 384.606 303.25 384.328 302.843 383.921C302.436 383.514 302.158 382.995 302.046 382.43C301.934 381.865 301.991 381.279 302.212 380.747C302.432 380.214 302.805 379.759 303.284 379.439C303.763 379.119 304.325 378.948 304.901 378.948C305.673 378.948 306.413 379.255 306.959 379.802C307.505 380.348 307.812 381.089 307.812 381.861Z" fill="#24A7FF"/>
<path d="M293.637 381.861C293.637 382.437 293.466 383.001 293.146 383.48C292.826 383.959 292.371 384.332 291.84 384.552C291.308 384.773 290.722 384.831 290.158 384.718C289.593 384.606 289.074 384.328 288.667 383.921C288.26 383.514 287.983 382.995 287.871 382.43C287.758 381.865 287.816 381.279 288.036 380.747C288.257 380.214 288.63 379.759 289.108 379.439C289.587 379.119 290.15 378.948 290.726 378.948C291.498 378.948 292.238 379.255 292.784 379.802C293.33 380.348 293.637 381.089 293.637 381.861Z" fill="white"/>
<path d="M279.434 381.861C279.434 382.437 279.263 383.001 278.943 383.48C278.624 383.959 278.169 384.332 277.637 384.552C277.105 384.773 276.52 384.831 275.955 384.718C275.391 384.606 274.872 384.328 274.465 383.921C274.058 383.514 273.78 382.995 273.668 382.43C273.556 381.865 273.613 381.279 273.834 380.747C274.054 380.214 274.427 379.759 274.906 379.439C275.385 379.119 275.947 378.948 276.523 378.948C277.295 378.948 278.036 379.255 278.581 379.802C279.127 380.348 279.434 381.089 279.434 381.861Z" fill="#24A7FF"/>
<path d="M265.204 381.861C265.204 382.437 265.034 383.001 264.714 383.48C264.394 383.959 263.939 384.332 263.408 384.552C262.876 384.773 262.29 384.831 261.726 384.718C261.161 384.606 260.642 384.328 260.235 383.921C259.828 383.514 259.551 382.995 259.439 382.43C259.326 381.865 259.384 381.279 259.604 380.747C259.825 380.214 260.198 379.759 260.676 379.439C261.155 379.119 261.718 378.948 262.294 378.948C263.066 378.948 263.806 379.255 264.352 379.802C264.898 380.348 265.204 381.089 265.204 381.861Z" fill="white"/>
<path d="M333.55 325.595H218.292C215.293 325.595 212.862 328.027 212.862 331.028V355.428C212.862 358.429 215.293 360.861 218.292 360.861H333.55C336.548 360.861 338.979 358.429 338.979 355.428V331.028C338.979 328.027 336.548 325.595 333.55 325.595Z" fill="#D6E0EA"/>
<path d="M271.473 325.568L265.746 360.794H218.292C216.855 360.794 215.478 360.223 214.462 359.206C213.447 358.19 212.876 356.812 212.876 355.374V330.987C212.876 329.55 213.447 328.171 214.462 327.155C215.478 326.139 216.855 325.568 218.292 325.568H271.473Z" fill="#EDEDED"/>
<path d="M331.221 353.098V333.358H220.62V353.098H331.221Z" fill="#3D4959"/>
<path d="M333.55 287.578H218.292C215.293 287.578 212.862 290.011 212.862 293.011V317.412C212.862 320.412 215.293 322.845 218.292 322.845H333.55C336.548 322.845 338.979 320.412 338.979 317.412V293.011C338.979 290.011 336.548 287.578 333.55 287.578Z" fill="#D6E0EA"/>
<path d="M277.674 287.632L271.974 322.858H218.292C216.855 322.858 215.478 322.287 214.462 321.271C213.447 320.255 212.876 318.876 212.876 317.439V293.052C212.876 291.614 213.447 290.236 214.462 289.22C215.478 288.203 216.855 287.632 218.292 287.632H277.674Z" fill="#EDEDED"/>
<path d="M331.207 315.081V295.341H220.607V315.081H331.207Z" fill="#3D4959"/>
<path d="M322.488 343.181C322.488 343.853 322.289 344.511 321.916 345.07C321.542 345.629 321.012 346.065 320.391 346.323C319.77 346.58 319.086 346.647 318.427 346.516C317.768 346.385 317.162 346.061 316.687 345.585C316.212 345.11 315.888 344.504 315.757 343.844C315.626 343.184 315.693 342.501 315.95 341.879C316.208 341.258 316.643 340.727 317.202 340.353C317.761 339.98 318.418 339.78 319.09 339.78C319.537 339.778 319.98 339.865 320.393 340.035C320.806 340.206 321.181 340.456 321.497 340.772C321.813 341.088 322.063 341.464 322.233 341.877C322.404 342.291 322.49 342.734 322.488 343.181Z" fill="#24A7FF"/>
<path d="M307.812 343.181C307.812 343.757 307.641 344.32 307.321 344.799C307.002 345.278 306.547 345.651 306.015 345.872C305.483 346.092 304.898 346.15 304.333 346.038C303.768 345.925 303.25 345.648 302.843 345.24C302.436 344.833 302.158 344.314 302.046 343.749C301.934 343.184 301.991 342.598 302.212 342.066C302.432 341.534 302.805 341.079 303.284 340.759C303.763 340.439 304.325 340.268 304.901 340.268C305.673 340.268 306.413 340.575 306.959 341.121C307.505 341.667 307.812 342.408 307.812 343.181Z" fill="#24A7FF"/>
<path d="M293.637 343.181C293.637 343.757 293.466 344.32 293.146 344.799C292.826 345.278 292.371 345.651 291.84 345.872C291.308 346.092 290.722 346.15 290.158 346.038C289.593 345.925 289.074 345.648 288.667 345.24C288.26 344.833 287.983 344.314 287.871 343.749C287.758 343.184 287.816 342.598 288.036 342.066C288.257 341.534 288.63 341.079 289.108 340.759C289.587 340.439 290.15 340.268 290.726 340.268C291.498 340.268 292.238 340.575 292.784 341.121C293.33 341.667 293.637 342.408 293.637 343.181Z" fill="white"/>
<path d="M279.434 343.181C279.434 343.757 279.263 344.32 278.943 344.799C278.624 345.278 278.169 345.651 277.637 345.872C277.105 346.092 276.52 346.15 275.955 346.038C275.391 345.925 274.872 345.648 274.465 345.24C274.058 344.833 273.78 344.314 273.668 343.749C273.556 343.184 273.613 342.598 273.834 342.066C274.054 341.534 274.427 341.079 274.906 340.759C275.385 340.439 275.947 340.268 276.523 340.268C277.295 340.268 278.036 340.575 278.581 341.121C279.127 341.667 279.434 342.408 279.434 343.181Z" fill="#24A7FF"/>
<path d="M265.204 343.181C265.204 343.757 265.034 344.32 264.714 344.799C264.394 345.278 263.939 345.651 263.408 345.872C262.876 346.092 262.29 346.15 261.726 346.038C261.161 345.925 260.642 345.648 260.235 345.24C259.828 344.833 259.551 344.314 259.439 343.749C259.326 343.184 259.384 342.598 259.604 342.066C259.825 341.534 260.198 341.079 260.676 340.759C261.155 340.439 261.718 340.268 262.294 340.268C263.066 340.268 263.806 340.575 264.352 341.121C264.898 341.667 265.204 342.408 265.204 343.181Z" fill="white"/>
<path d="M322.488 305.245C322.488 305.918 322.289 306.575 321.916 307.134C321.542 307.694 321.012 308.13 320.391 308.387C319.77 308.644 319.086 308.712 318.427 308.58C317.768 308.449 317.162 308.125 316.687 307.65C316.212 307.174 315.888 306.568 315.757 305.909C315.626 305.249 315.693 304.565 315.95 303.944C316.208 303.322 316.643 302.791 317.202 302.418C317.761 302.044 318.418 301.844 319.09 301.844C319.991 301.844 320.856 302.203 321.493 302.841C322.13 303.478 322.488 304.343 322.488 305.245Z" fill="#24A7FF"/>
<path d="M307.812 305.245C307.812 305.821 307.641 306.384 307.321 306.864C307.002 307.343 306.547 307.716 306.015 307.936C305.483 308.157 304.898 308.214 304.333 308.102C303.768 307.99 303.25 307.712 302.843 307.305C302.436 306.898 302.158 306.378 302.046 305.813C301.934 305.248 301.991 304.663 302.212 304.13C302.432 303.598 302.805 303.143 303.284 302.823C303.763 302.503 304.325 302.332 304.901 302.332C305.673 302.332 306.413 302.639 306.959 303.185C307.505 303.732 307.812 304.473 307.812 305.245Z" fill="white"/>
<path d="M293.637 305.245C293.637 305.821 293.466 306.384 293.146 306.864C292.826 307.343 292.371 307.716 291.84 307.936C291.308 308.157 290.722 308.214 290.158 308.102C289.593 307.99 289.074 307.712 288.667 307.305C288.26 306.898 287.983 306.378 287.871 305.813C287.758 305.248 287.816 304.663 288.036 304.13C288.257 303.598 288.63 303.143 289.108 302.823C289.587 302.503 290.15 302.332 290.726 302.332C291.498 302.332 292.238 302.639 292.784 303.185C293.33 303.732 293.637 304.473 293.637 305.245Z" fill="white"/>
<path d="M279.434 305.245C279.434 305.821 279.263 306.384 278.943 306.864C278.624 307.343 278.169 307.716 277.637 307.936C277.105 308.157 276.52 308.214 275.955 308.102C275.391 307.99 274.872 307.712 274.465 307.305C274.058 306.898 273.78 306.378 273.668 305.813C273.556 305.248 273.613 304.663 273.834 304.13C274.054 303.598 274.427 303.143 274.906 302.823C275.385 302.503 275.947 302.332 276.523 302.332C277.295 302.332 278.036 302.639 278.581 303.185C279.127 303.732 279.434 304.473 279.434 305.245Z" fill="#24A7FF"/>
<path d="M265.204 305.245C265.204 305.821 265.034 306.384 264.714 306.864C264.394 307.343 263.939 307.716 263.408 307.936C262.876 308.157 262.29 308.214 261.726 308.102C261.161 307.99 260.642 307.712 260.235 307.305C259.828 306.898 259.551 306.378 259.439 305.813C259.326 305.248 259.384 304.663 259.604 304.13C259.825 303.598 260.198 303.143 260.676 302.823C261.155 302.503 261.718 302.332 262.294 302.332C263.066 302.332 263.806 302.639 264.352 303.185C264.898 303.732 265.204 304.473 265.204 305.245Z" fill="#24A7FF"/>
<path d="M543.974 280.858C543.973 272.068 541.173 263.507 535.98 256.418C530.787 249.328 523.471 244.079 515.095 241.432C514.259 234.852 511.758 228.595 507.829 223.253C503.9 217.911 498.674 213.661 492.644 210.905C486.615 208.149 479.983 206.98 473.375 207.506C466.768 208.033 460.404 210.239 454.887 213.916C449.371 210.239 443.008 208.032 436.401 207.505C429.794 206.978 423.162 208.148 417.134 210.904C411.105 213.659 405.88 217.91 401.953 223.253C398.025 228.595 395.526 234.853 394.692 241.432C385.29 244.408 377.262 250.651 372.058 259.033C366.855 267.416 364.82 277.384 366.321 287.137C367.822 296.89 372.761 305.784 380.244 312.211C387.726 318.638 397.26 322.174 407.121 322.181H503.573C514.369 321.943 524.642 317.486 532.193 309.762C539.744 302.039 543.973 291.663 543.974 280.858Z" fill="#24A7FF"/>
<path d="M454.548 213.753C449.024 210.153 442.675 208.016 436.099 207.542C429.523 207.069 422.935 208.275 416.952 211.047C410.969 213.819 405.788 218.066 401.895 223.391C398.001 228.715 395.523 234.941 394.692 241.487C385.29 244.462 377.262 250.705 372.058 259.088C366.855 267.47 364.82 277.439 366.321 287.191C367.822 296.944 372.761 305.838 380.244 312.265C387.726 318.692 397.26 322.229 407.121 322.235H436.135L454.548 213.753Z" fill="#3BB0FF"/>
<path d="M468.033 302.048H362.659V309.892H468.033V302.048Z" fill="#3D4959"/>
<path d="M468.033 264.017H362.659V271.862H468.033V264.017Z" fill="#3D4959"/>
<path d="M472.745 307.955H357.487C354.488 307.955 352.058 310.387 352.058 313.388V337.788C352.058 340.789 354.488 343.221 357.487 343.221H472.745C475.743 343.221 478.174 340.789 478.174 337.788V313.388C478.174 310.387 475.743 307.955 472.745 307.955Z" fill="#D6E0EA"/>
<path d="M404.4 307.955L398.646 343.181H357.487C356.05 343.181 354.673 342.61 353.657 341.593C352.642 340.577 352.071 339.199 352.071 337.761V313.374C352.071 311.937 352.642 310.558 353.657 309.542C354.673 308.526 356.05 307.955 357.487 307.955H404.4Z" fill="#EDEDED"/>
<path d="M470.416 335.458V315.718H359.816V335.458H470.416Z" fill="#3D4959"/>
<path d="M461.684 325.568C461.686 326.241 461.489 326.9 461.117 327.461C460.746 328.022 460.216 328.46 459.595 328.719C458.974 328.979 458.291 329.048 457.631 328.918C456.971 328.789 456.364 328.466 455.887 327.991C455.41 327.516 455.085 326.91 454.953 326.25C454.821 325.59 454.888 324.905 455.144 324.283C455.401 323.661 455.837 323.129 456.396 322.755C456.955 322.38 457.613 322.181 458.285 322.181C459.184 322.181 460.047 322.537 460.683 323.172C461.32 323.807 461.68 324.668 461.684 325.568Z" fill="#24A7FF"/>
<path d="M444.096 328.508C445.704 328.508 447.007 327.204 447.007 325.595C447.007 323.986 445.704 322.682 444.096 322.682C442.489 322.682 441.185 323.986 441.185 325.595C441.185 327.204 442.489 328.508 444.096 328.508Z" fill="#24A7FF"/>
<path d="M432.818 325.568C432.818 326.144 432.648 326.707 432.328 327.186C432.008 327.665 431.553 328.038 431.021 328.259C430.489 328.479 429.904 328.537 429.339 328.425C428.775 328.312 428.256 328.035 427.849 327.627C427.442 327.22 427.165 326.701 427.052 326.136C426.94 325.571 426.998 324.985 427.218 324.453C427.438 323.921 427.811 323.466 428.29 323.146C428.769 322.826 429.332 322.655 429.907 322.655C430.679 322.655 431.42 322.962 431.966 323.508C432.512 324.054 432.818 324.795 432.818 325.568Z" fill="white"/>
<path d="M418.629 325.568C418.629 326.144 418.459 326.707 418.139 327.186C417.819 327.665 417.364 328.038 416.832 328.259C416.3 328.479 415.715 328.537 415.151 328.425C414.586 328.312 414.067 328.035 413.66 327.627C413.253 327.22 412.976 326.701 412.863 326.136C412.751 325.571 412.809 324.985 413.029 324.453C413.249 323.921 413.622 323.466 414.101 323.146C414.58 322.826 415.143 322.655 415.718 322.655C416.49 322.655 417.231 322.962 417.777 323.508C418.323 324.054 418.629 324.795 418.629 325.568Z" fill="#24A7FF"/>
<path d="M404.44 325.568C404.44 326.144 404.27 326.707 403.95 327.186C403.63 327.665 403.175 328.038 402.643 328.259C402.111 328.479 401.526 328.537 400.962 328.425C400.397 328.312 399.878 328.035 399.471 327.627C399.064 327.22 398.787 326.701 398.674 326.136C398.562 325.571 398.62 324.985 398.84 324.453C399.06 323.921 399.434 323.466 399.912 323.146C400.391 322.826 400.954 322.655 401.529 322.655C402.301 322.655 403.042 322.962 403.588 323.508C404.134 324.054 404.44 324.795 404.44 325.568Z" fill="white"/>
<path d="M472.745 269.328H357.487C354.488 269.328 352.058 271.761 352.058 274.761V299.162C352.058 302.162 354.488 304.595 357.487 304.595H472.745C475.743 304.595 478.174 302.162 478.174 299.162V274.761C478.174 271.761 475.743 269.328 472.745 269.328Z" fill="#D6E0EA"/>
<path d="M410.682 269.328L404.941 304.554H357.554C356.118 304.554 354.741 303.983 353.725 302.967C352.709 301.951 352.139 300.572 352.139 299.135V274.748C352.139 273.31 352.709 271.932 353.725 270.916C354.741 269.899 356.118 269.328 357.554 269.328H410.682Z" fill="#EDEDED"/>
<path d="M470.416 296.832V277.092H359.816V296.832H470.416Z" fill="#3D4959"/>
<path d="M472.745 231.298H357.487C354.488 231.298 352.058 233.73 352.058 236.731V261.132C352.058 264.132 354.488 266.565 357.487 266.565H472.745C475.743 266.565 478.174 264.132 478.174 261.132V236.731C478.174 233.73 475.743 231.298 472.745 231.298Z" fill="#D6E0EA"/>
<path d="M416.842 231.298L411.102 266.524H357.487C356.05 266.524 354.673 265.953 353.657 264.937C352.642 263.92 352.071 262.542 352.071 261.105V236.717C352.071 235.28 352.642 233.902 353.657 232.885C354.673 231.869 356.05 231.298 357.487 231.298H416.842Z" fill="#EDEDED"/>
<path d="M470.416 258.801V239.061H359.816V258.801H470.416Z" fill="#3D4959"/>
<path d="M461.683 286.955C461.683 287.627 461.484 288.285 461.111 288.844C460.737 289.403 460.207 289.839 459.586 290.097C458.965 290.354 458.281 290.421 457.622 290.29C456.963 290.159 456.357 289.835 455.882 289.359C455.407 288.884 455.083 288.278 454.952 287.618C454.821 286.959 454.888 286.275 455.146 285.653C455.403 285.032 455.838 284.501 456.397 284.127C456.956 283.754 457.613 283.554 458.285 283.554C459.186 283.554 460.051 283.912 460.688 284.55C461.325 285.188 461.683 286.053 461.683 286.955Z" fill="#24A7FF"/>
<path d="M447.007 286.955C447.007 287.531 446.836 288.094 446.517 288.573C446.197 289.052 445.742 289.426 445.21 289.646C444.678 289.867 444.093 289.924 443.528 289.812C442.964 289.699 442.445 289.422 442.038 289.015C441.631 288.607 441.354 288.088 441.241 287.523C441.129 286.958 441.187 286.372 441.407 285.84C441.627 285.308 442 284.853 442.479 284.533C442.958 284.213 443.521 284.042 444.096 284.042C444.868 284.042 445.609 284.349 446.155 284.895C446.7 285.441 447.007 286.182 447.007 286.955Z" fill="#24A7FF"/>
<path d="M432.818 286.955C432.818 287.531 432.648 288.094 432.328 288.573C432.008 289.052 431.553 289.426 431.021 289.646C430.489 289.867 429.904 289.924 429.339 289.812C428.775 289.699 428.256 289.422 427.849 289.015C427.442 288.607 427.165 288.088 427.052 287.523C426.94 286.958 426.998 286.372 427.218 285.84C427.438 285.308 427.811 284.853 428.29 284.533C428.769 284.213 429.332 284.042 429.907 284.042C430.679 284.042 431.42 284.349 431.966 284.895C432.512 285.441 432.818 286.182 432.818 286.955Z" fill="white"/>
<path d="M418.629 286.955C418.629 287.531 418.459 288.094 418.139 288.573C417.819 289.052 417.364 289.426 416.832 289.646C416.3 289.867 415.715 289.924 415.151 289.812C414.586 289.699 414.067 289.422 413.66 289.015C413.253 288.607 412.976 288.088 412.863 287.523C412.751 286.958 412.809 286.372 413.029 285.84C413.249 285.308 413.622 284.853 414.101 284.533C414.58 284.213 415.143 284.042 415.718 284.042C416.49 284.042 417.231 284.349 417.777 284.895C418.323 285.441 418.629 286.182 418.629 286.955Z" fill="#24A7FF"/>
<path d="M404.44 286.955C404.44 287.531 404.27 288.094 403.95 288.573C403.63 289.052 403.175 289.426 402.643 289.646C402.111 289.867 401.526 289.924 400.962 289.812C400.397 289.699 399.878 289.422 399.471 289.015C399.064 288.607 398.787 288.088 398.674 287.523C398.562 286.958 398.62 286.372 398.84 285.84C399.06 285.308 399.434 284.853 399.912 284.533C400.391 284.213 400.954 284.042 401.529 284.042C402.301 284.042 403.042 284.349 403.588 284.895C404.134 285.441 404.44 286.182 404.44 286.955Z" fill="white"/>
<path d="M461.683 248.938C461.683 249.611 461.484 250.268 461.111 250.827C460.737 251.387 460.207 251.822 459.586 252.08C458.965 252.337 458.281 252.405 457.622 252.273C456.963 252.142 456.357 251.818 455.882 251.343C455.407 250.867 455.083 250.261 454.952 249.601C454.821 248.942 454.888 248.258 455.146 247.637C455.403 247.015 455.838 246.484 456.397 246.11C456.956 245.737 457.613 245.537 458.285 245.537C458.732 245.536 459.175 245.622 459.588 245.793C460.001 245.963 460.376 246.213 460.692 246.529C461.008 246.846 461.258 247.221 461.428 247.635C461.599 248.048 461.685 248.491 461.683 248.938Z" fill="#24A7FF"/>
<path d="M447.007 248.938C447.007 249.514 446.836 250.077 446.517 250.556C446.197 251.035 445.742 251.409 445.21 251.629C444.678 251.85 444.093 251.907 443.528 251.795C442.964 251.683 442.445 251.405 442.038 250.998C441.631 250.59 441.354 250.071 441.241 249.506C441.129 248.941 441.187 248.356 441.407 247.823C441.627 247.291 442 246.836 442.479 246.516C442.958 246.196 443.521 246.025 444.096 246.025C444.868 246.025 445.609 246.332 446.155 246.878C446.7 247.425 447.007 248.165 447.007 248.938Z" fill="white"/>
<path d="M432.818 248.938C432.818 249.514 432.648 250.077 432.328 250.556C432.008 251.035 431.553 251.409 431.021 251.629C430.489 251.85 429.904 251.907 429.339 251.795C428.775 251.683 428.256 251.405 427.849 250.998C427.442 250.59 427.165 250.071 427.052 249.506C426.94 248.941 426.998 248.356 427.218 247.823C427.438 247.291 427.811 246.836 428.29 246.516C428.769 246.196 429.332 246.025 429.907 246.025C430.679 246.025 431.42 246.332 431.966 246.878C432.512 247.425 432.818 248.165 432.818 248.938Z" fill="white"/>
<path d="M418.629 248.938C418.629 249.514 418.459 250.077 418.139 250.556C417.819 251.035 417.364 251.409 416.832 251.629C416.3 251.85 415.715 251.907 415.151 251.795C414.586 251.683 414.067 251.405 413.66 250.998C413.253 250.59 412.976 250.071 412.863 249.506C412.751 248.941 412.809 248.356 413.029 247.823C413.249 247.291 413.622 246.836 414.101 246.516C414.58 246.196 415.143 246.025 415.718 246.025C416.49 246.025 417.231 246.332 417.777 246.878C418.323 247.425 418.629 248.165 418.629 248.938Z" fill="#24A7FF"/>
<path d="M404.44 248.938C404.44 249.514 404.27 250.077 403.95 250.556C403.63 251.035 403.175 251.409 402.643 251.629C402.111 251.85 401.526 251.907 400.962 251.795C400.397 251.683 399.878 251.405 399.471 250.998C399.064 250.59 398.787 250.071 398.674 249.506C398.562 248.941 398.62 248.356 398.84 247.823C399.06 247.291 399.434 246.836 399.912 246.516C400.391 246.196 400.954 246.025 401.529 246.025C402.301 246.025 403.042 246.332 403.588 246.878C404.134 247.425 404.44 248.165 404.44 248.938Z" fill="#24A7FF"/>
<path d="M183.916 0.000191011H367.925C371.089 0.000191011 374.123 1.25779 376.36 3.49629C378.597 5.73469 379.853 8.77069 379.853 11.9364V122.247C379.853 126.02 378.356 129.638 375.69 132.306C373.024 134.974 369.408 136.473 365.637 136.473H186.204C184.331 136.482 182.476 136.12 180.743 135.409C179.01 134.699 177.435 133.652 176.108 132.33C174.781 131.008 173.728 129.437 173.009 127.707C172.29 125.976 171.92 124.121 171.92 122.247V11.9364C171.92 10.3632 172.231 8.80549 172.835 7.35289C173.438 5.90029 174.323 4.58149 175.438 3.47219C176.553 2.36299 177.876 1.48519 179.331 0.88929C180.785 0.29349 182.344 -0.00870899 183.916 0.000191011Z" fill="#3BB0FF"/>
<path opacity="0.2" d="M274.1 0.000251995H183.97C182.403 -0.001548 180.851 0.306051 179.403 0.905251C177.955 1.50445 176.64 2.38355 175.532 3.49235C174.424 4.60105 173.545 5.91755 172.946 7.36655C172.348 8.81545 172.04 10.3685 172.042 11.9364V122.247C172.046 126.018 173.545 129.633 176.211 132.298C178.876 134.962 182.49 136.459 186.258 136.459H246.656L274.1 0.000251995Z" fill="white"/>
<path d="M171.92 22.4634H379.853V147C379.853 150.166 378.597 153.202 376.36 155.44C374.123 157.678 371.089 158.936 367.925 158.936H183.916C182.344 158.945 180.785 158.643 179.331 158.047C177.876 157.451 176.553 156.573 175.438 155.464C174.323 154.355 173.438 153.036 172.835 151.583C172.231 150.131 171.92 148.573 171.92 147V22.4634Z" fill="#D6E0EA"/>
<path d="M374.167 22.4634V147C374.167 147.829 374.004 148.65 373.687 149.416C373.37 150.182 372.905 150.878 372.319 151.464C371.733 152.051 371.038 152.516 370.272 152.833C369.507 153.15 368.686 153.313 367.858 153.313H183.902C183.074 153.313 182.253 153.15 181.488 152.833C180.722 152.516 180.027 152.051 179.441 151.464C178.855 150.878 178.39 150.182 178.073 149.416C177.756 148.65 177.593 147.829 177.593 147V22.4634H374.167Z" fill="#F3F9FF"/>
<path d="M312.835 114.213V102.019L304.441 100.827C303.79 98.1024 302.717 95.4964 301.259 93.1054L306.323 86.3304L297.698 77.6324L290.929 82.7134C288.545 81.2514 285.945 80.1764 283.225 79.5294L282.02 71.1704H269.835L268.63 79.5294C265.91 80.1764 263.31 81.2514 260.926 82.7134L254.157 77.6324L245.478 86.3174L250.555 93.0914C249.075 95.4714 248 98.0814 247.374 100.814L239.02 102.006V114.199L247.374 115.405C248.01 118.147 249.084 120.769 250.555 123.168L245.478 129.943L254.157 138.586L260.926 133.506C263.296 135.003 265.9 136.093 268.63 136.73L269.835 145.09H282.02L283.225 136.73C285.955 136.093 288.558 135.003 290.929 133.506L297.698 138.586L306.323 129.943L301.259 123.168C302.701 120.773 303.773 118.174 304.441 115.459L312.835 114.213ZM275.914 126.596C272.257 126.599 268.681 125.516 265.64 123.484C262.598 121.452 260.228 118.563 258.828 115.183C257.428 111.802 257.061 108.082 257.775 104.493C258.489 100.904 260.25 97.6084 262.837 95.0214C265.424 92.4344 268.719 90.6744 272.307 89.9624C275.894 89.2504 279.611 89.6204 282.988 91.0234C286.366 92.4274 289.251 94.8014 291.279 97.8464C293.307 100.892 294.387 104.47 294.381 108.13C294.379 110.553 293.9 112.953 292.971 115.191C292.041 117.43 290.68 119.463 288.965 121.174C287.25 122.885 285.214 124.241 282.975 125.165C280.735 126.088 278.336 126.561 275.914 126.555V126.596Z" fill="#425160"/>
<path d="M275.86 126.555C270.958 126.555 266.258 124.607 262.792 121.139C259.326 117.671 257.379 112.967 257.379 108.062C257.379 103.157 259.326 98.4533 262.792 94.9853C266.258 91.5173 270.958 89.5683 275.86 89.5683V71.1433H269.781L268.576 79.5023C265.856 80.1493 263.256 81.2243 260.872 82.6863L254.102 77.6053L245.424 86.2903L250.501 93.0643C249.021 95.4443 247.946 98.0543 247.319 100.786L238.966 101.979V114.172L247.319 115.378C247.955 118.12 249.03 120.742 250.501 123.141L245.424 129.915L254.102 138.559L260.872 133.479C263.242 134.976 265.846 136.066 268.576 136.703L269.781 145.063H275.86V126.555Z" fill="#3D4959"/>
<path d="M358.231 64.8563V56.1313L352.234 55.2778C351.78 53.3345 351.017 51.4771 349.973 49.7771L353.588 44.981L347.441 38.7894L342.607 42.4068C340.906 41.3633 339.051 40.5951 337.11 40.1307L336.258 34.1829H327.484L326.631 40.1307C324.691 40.5951 322.836 41.3633 321.134 42.4068L316.342 38.7894L310.154 44.981L313.769 49.7771C312.709 51.4708 311.941 53.33 311.495 55.2778L305.537 56.1313V64.8563L311.495 65.7103C311.945 67.6643 312.714 69.5323 313.769 71.2373L310.154 76.0473L316.342 82.1983L321.134 78.5813C322.826 79.6503 324.683 80.4283 326.631 80.8843L327.484 86.8453H336.203L337.056 80.8843C339.004 80.4283 340.862 79.6503 342.553 78.5813L347.387 82.1983L353.533 76.0473L349.918 71.2103C350.951 69.5053 351.714 67.6493 352.179 65.7103L358.231 64.8563ZM331.911 73.6763C329.305 73.6793 326.756 72.9083 324.588 71.4603C322.419 70.0133 320.729 67.9543 319.73 65.5453C318.731 63.1353 318.469 60.4839 318.977 57.9254C319.485 55.367 320.74 53.0168 322.583 51.1724C324.426 49.328 326.775 48.0722 329.331 47.564C331.888 47.0557 334.538 47.3179 336.945 48.3174C339.353 49.3168 341.41 51.0086 342.857 53.1785C344.303 55.3484 345.074 57.899 345.071 60.5074C345.075 62.2383 344.737 63.9523 344.077 65.5513C343.417 67.1503 342.448 68.6033 341.225 69.8273C340.002 71.0513 338.55 72.0203 336.952 72.6813C335.354 73.3423 333.641 73.6803 331.911 73.6763Z" fill="#41566D"/>
<path d="M250.284 29.3325H184.647V34.7925H250.284V29.3325Z" fill="#D6E0EA"/>
<path d="M250.284 42.2305H184.647V47.6905H250.284V42.2305Z" fill="#D6E0EA"/>
<path d="M250.284 55.1287H184.647V60.5887H250.284V55.1287Z" fill="#D6E0EA"/>
<path d="M236.095 68.0264H184.647V73.4864H236.095V68.0264Z" fill="#D6E0EA"/>
<path d="M236.095 80.9253H184.647V86.3853H236.095V80.9253Z" fill="#D6E0EA"/>
<path d="M330.652 11.435C330.655 12.344 330.388 13.2333 329.885 13.9904C329.383 14.7475 328.667 15.3383 327.828 15.688C326.99 16.0377 326.067 16.1306 325.175 15.9549C324.284 15.7792 323.465 15.3428 322.822 14.7011C322.179 14.0593 321.74 13.2409 321.562 12.3496C321.384 11.4583 321.474 10.5341 321.821 9.69414C322.168 8.85414 322.756 8.13603 323.511 7.63073C324.266 7.12543 325.154 6.85573 326.063 6.85573C326.665 6.85393 327.261 6.97103 327.818 7.20043C328.375 7.42973 328.881 7.76673 329.307 8.19213C329.734 8.61753 330.072 9.12303 330.303 9.67953C330.533 10.236 330.652 10.8325 330.652 11.435Z" fill="white"/>
<path d="M349.35 11.435C349.35 12.3407 349.081 13.2261 348.579 13.9792C348.076 14.7322 347.361 15.3192 346.525 15.6658C345.689 16.0124 344.769 16.1031 343.881 15.9264C342.993 15.7497 342.178 15.3135 341.538 14.6731C340.898 14.0327 340.462 13.2167 340.285 12.3284C340.109 11.4401 340.199 10.5193 340.546 9.68261C340.892 8.84581 341.479 8.13061 342.231 7.62741C342.984 7.12421 343.868 6.85571 344.774 6.85571C345.987 6.85571 347.151 7.33811 348.009 8.19691C348.868 9.05571 349.35 10.2205 349.35 11.435Z" fill="white"/>
<path d="M368.101 11.435C368.101 12.3407 367.833 13.2261 367.33 13.9792C366.827 14.7322 366.113 15.3192 365.276 15.6658C364.44 16.0124 363.52 16.1031 362.632 15.9264C361.745 15.7497 360.929 15.3135 360.289 14.6731C359.649 14.0327 359.213 13.2167 359.037 12.3284C358.86 11.4401 358.951 10.5193 359.297 9.68261C359.644 8.84581 360.23 8.13061 360.983 7.62741C361.735 7.12421 362.62 6.85571 363.525 6.85571C364.739 6.85571 365.903 7.33811 366.761 8.19691C367.619 9.05571 368.101 10.2205 368.101 11.435Z" fill="white"/>
<path d="M320.309 139.264C320.309 139.987 320.094 140.695 319.692 141.296C319.291 141.898 318.72 142.367 318.052 142.643C317.384 142.92 316.649 142.993 315.94 142.852C315.231 142.71 314.579 142.362 314.068 141.85C313.557 141.339 313.209 140.687 313.068 139.977C312.927 139.268 312.999 138.532 313.276 137.864C313.552 137.195 314.021 136.624 314.622 136.222C315.223 135.82 315.93 135.606 316.653 135.606C317.623 135.606 318.552 135.991 319.238 136.677C319.923 137.363 320.309 138.294 320.309 139.264Z" fill="#24A7FF"/>
<path d="M336.122 139.264C336.125 139.991 335.912 140.702 335.51 141.307C335.109 141.913 334.537 142.386 333.867 142.666C333.196 142.946 332.458 143.02 331.746 142.88C331.033 142.74 330.378 142.391 329.863 141.878C329.349 141.365 328.998 140.711 328.855 139.999C328.713 139.286 328.785 138.547 329.062 137.875C329.339 137.204 329.809 136.629 330.413 136.225C331.017 135.821 331.727 135.606 332.453 135.606C333.424 135.606 334.355 135.991 335.043 136.676C335.73 137.362 336.119 138.292 336.122 139.264Z" fill="#24A7FF"/>
<path d="M353.425 139.264C353.428 140.289 353.126 141.291 352.559 142.144C351.992 142.998 351.184 143.663 350.239 144.056C349.293 144.45 348.252 144.554 347.247 144.354C346.243 144.155 345.32 143.662 344.596 142.937C343.872 142.213 343.379 141.289 343.18 140.284C342.981 139.279 343.084 138.237 343.477 137.291C343.871 136.344 344.536 135.536 345.388 134.969C346.241 134.401 347.243 134.099 348.267 134.102C349.635 134.102 350.947 134.646 351.914 135.614C352.882 136.582 353.425 137.895 353.425 139.264Z" fill="#24A7FF"/>
<path d="M367.736 139.264C367.739 139.991 367.526 140.702 367.124 141.307C366.723 141.913 366.151 142.386 365.48 142.666C364.81 142.946 364.072 143.02 363.359 142.88C362.647 142.74 361.992 142.391 361.477 141.878C360.963 141.365 360.612 140.711 360.469 139.999C360.327 139.286 360.399 138.547 360.676 137.875C360.953 137.204 361.423 136.629 362.027 136.225C362.631 135.821 363.341 135.606 364.067 135.606C365.038 135.606 365.969 135.991 366.657 136.676C367.344 137.362 367.732 138.292 367.736 139.264Z" fill="#24A7FF"/>
<path d="M191.43 139.264C191.433 139.991 191.22 140.702 190.818 141.307C190.417 141.913 189.845 142.386 189.175 142.666C188.504 142.946 187.766 143.02 187.054 142.88C186.341 142.74 185.686 142.391 185.171 141.878C184.657 141.365 184.306 140.711 184.163 139.999C184.021 139.286 184.093 138.547 184.37 137.875C184.647 137.204 185.117 136.629 185.721 136.225C186.325 135.821 187.035 135.606 187.761 135.606C188.732 135.606 189.663 135.991 190.351 136.676C191.038 137.362 191.426 138.292 191.43 139.264Z" fill="#24A7FF"/>
<path d="M207.23 139.264C207.23 139.987 207.016 140.695 206.614 141.296C206.212 141.898 205.642 142.367 204.974 142.643C204.306 142.92 203.571 142.993 202.861 142.852C202.152 142.71 201.501 142.362 200.99 141.85C200.479 141.339 200.13 140.687 199.989 139.977C199.848 139.268 199.921 138.532 200.197 137.864C200.474 137.195 200.943 136.624 201.544 136.222C202.145 135.82 202.852 135.606 203.575 135.606C204.544 135.606 205.474 135.991 206.159 136.677C206.845 137.363 207.23 138.294 207.23 139.264Z" fill="#24A7FF"/>
<path d="M223.03 139.264C223.03 139.987 222.816 140.695 222.414 141.296C222.012 141.898 221.442 142.367 220.774 142.643C220.106 142.92 219.371 142.993 218.662 142.852C217.952 142.71 217.301 142.362 216.79 141.85C216.279 141.339 215.93 140.687 215.789 139.977C215.648 139.268 215.721 138.532 215.997 137.864C216.274 137.195 216.743 136.624 217.344 136.222C217.945 135.82 218.652 135.606 219.375 135.606C220.344 135.606 221.274 135.991 221.96 136.677C222.645 137.363 223.03 138.294 223.03 139.264Z" fill="#24A7FF"/>
<path d="M238.844 139.264C238.847 139.991 238.633 140.703 238.231 141.309C237.829 141.915 237.256 142.387 236.585 142.667C235.914 142.946 235.175 143.02 234.462 142.879C233.749 142.738 233.094 142.388 232.58 141.874C232.066 141.359 231.717 140.704 231.576 139.99C231.434 139.277 231.508 138.537 231.788 137.866C232.067 137.195 232.539 136.621 233.145 136.219C233.75 135.816 234.462 135.603 235.188 135.606C236.158 135.606 237.088 135.991 237.773 136.677C238.459 137.363 238.844 138.294 238.844 139.264Z" fill="#24A7FF"/>
<path d="M158.814 35.4563V25.417L151.923 24.4279C151.397 22.1945 150.519 20.0589 149.324 18.1008L153.48 12.5731L146.413 5.46017L140.835 9.61957C138.881 8.41367 136.746 7.53077 134.512 7.00467L133.537 0.14917H123.505L122.516 7.00467C120.283 7.53567 118.149 8.41827 116.193 9.61957L110.669 5.46017L103.561 12.6002L107.718 18.1279C106.506 20.0794 105.624 22.2169 105.105 24.455L98.2538 25.4441V35.4834L105.105 36.4589C105.626 38.709 106.508 40.8596 107.718 42.8266L103.561 48.3544L110.669 55.4402L116.193 51.2808C118.142 52.5017 120.278 53.3942 122.516 53.9228L123.505 60.7782H133.537L134.512 53.9228C136.751 53.3992 138.888 52.5064 140.835 51.2808L146.413 55.4402L153.48 48.3544L149.324 42.786C150.51 40.8235 151.387 38.6893 151.923 36.4589L158.814 35.4563ZM128.541 43.0028C126.054 43.0054 123.623 42.2696 121.554 40.8885C119.486 39.5074 117.873 37.5432 116.921 35.2444C115.969 32.9457 115.72 30.4159 116.205 27.9753C116.69 25.5348 117.889 23.2933 119.648 21.5347C121.407 19.7761 123.649 18.5794 126.088 18.0962C128.527 17.6131 131.055 17.8652 133.351 18.8205C135.647 19.7759 137.609 21.3916 138.987 23.4631C140.364 25.5345 141.097 27.9685 141.092 30.457C141.094 32.1061 140.77 33.7395 140.14 35.2633C139.51 36.7871 138.585 38.1714 137.419 39.337C136.253 40.5025 134.869 41.4262 133.345 42.0553C131.822 42.6844 130.189 43.0063 128.541 43.0028Z" fill="#E4EFF7"/>
<path d="M471.08 174.151V165.453L465.122 164.599C464.658 162.685 463.895 160.857 462.861 159.18L466.463 154.384L460.33 148.219L455.51 151.823C453.834 150.789 452.007 150.026 450.094 149.561L449.241 143.626H440.549L439.696 149.561C437.784 150.029 435.957 150.792 434.28 151.823L429.501 148.219L423.327 154.384L426.942 159.18C425.892 160.848 425.128 162.68 424.681 164.599L418.738 165.453V174.151L424.681 175.005C425.13 176.949 425.894 178.807 426.942 180.505L423.327 185.301L429.501 191.439L434.28 187.821C435.947 188.882 437.776 189.661 439.696 190.125L440.549 196.059H449.241L450.094 190.125C452.015 189.663 453.845 188.885 455.51 187.821L460.33 191.439L466.463 185.301L462.875 180.478C463.895 178.795 464.657 176.968 465.136 175.059L471.08 174.151ZM444.854 180.681C442.712 180.681 440.618 180.046 438.837 178.855C437.056 177.664 435.667 175.971 434.848 173.99C434.028 172.01 433.813 169.831 434.231 167.728C434.649 165.626 435.681 163.694 437.196 162.178C438.71 160.663 440.64 159.63 442.741 159.212C444.842 158.794 447.02 159.009 448.999 159.829C450.979 160.649 452.67 162.038 453.86 163.821C455.05 165.603 455.686 167.699 455.686 169.843C455.686 172.717 454.545 175.474 452.513 177.507C450.482 179.539 447.727 180.681 444.854 180.681Z" fill="#DDE9F2"/>
<path d="M395.572 373.326V367.568L391.632 366.999C391.333 365.719 390.825 364.497 390.13 363.381L392.526 360.211L388.464 356.146L385.269 358.544C384.154 357.849 382.933 357.341 381.654 357.041L381.085 353.112H375.345L374.776 357.041C373.493 357.342 372.268 357.85 371.148 358.544L367.993 356.146L363.931 360.211L366.328 363.381C365.627 364.494 365.119 365.717 364.825 366.999L360.899 367.568V373.312L364.825 373.881C365.125 375.17 365.633 376.401 366.328 377.526L363.931 380.696L367.993 384.761L371.148 382.363C372.264 383.07 373.49 383.587 374.776 383.894L375.345 387.823H381.085L381.654 383.894C382.936 383.59 384.158 383.072 385.269 382.363L388.41 384.774L392.472 380.71L390.075 377.526C390.759 376.4 391.266 375.175 391.578 373.895L395.572 373.326ZM378.229 377.661C376.803 377.664 375.409 377.243 374.222 376.452C373.035 375.661 372.11 374.536 371.563 373.218C371.016 371.9 370.873 370.45 371.15 369.051C371.428 367.651 372.114 366.366 373.122 365.357C374.13 364.348 375.415 363.661 376.813 363.384C378.212 363.106 379.661 363.25 380.978 363.797C382.295 364.344 383.419 365.27 384.21 366.458C385 367.645 385.421 369.04 385.418 370.467C385.42 371.412 385.235 372.349 384.874 373.222C384.514 374.096 383.984 374.89 383.316 375.558C382.648 376.227 381.855 376.756 380.982 377.117C380.109 377.478 379.173 377.663 378.229 377.661Z" fill="#E4EFF7"/>
<path d="M225.941 413.754C225.941 409.785 228.067 407.522 230.924 407.522C233.78 407.522 235.892 409.785 235.892 413.754C235.892 417.724 233.767 420 230.924 420C228.08 420 225.941 417.697 225.941 413.754ZM234.146 413.754C234.146 410.638 232.792 409.067 230.924 409.067C229.055 409.067 227.688 410.638 227.688 413.754C227.688 416.87 229.042 418.442 230.924 418.442C232.805 418.442 234.132 416.884 234.132 413.754H234.146Z" fill="#DDE9F2"/>
<path d="M237.558 413.754C237.558 409.785 239.683 407.522 242.54 407.522C245.397 407.522 247.495 409.785 247.495 413.754C247.495 417.724 245.37 420 242.54 420C239.71 420 237.558 417.697 237.558 413.754ZM245.681 413.754C245.681 410.638 244.327 409.067 242.472 409.067C240.617 409.067 239.223 410.638 239.223 413.754C239.223 416.87 240.577 418.442 242.472 418.442C244.368 418.442 245.749 416.884 245.749 413.754H245.681Z" fill="#DDE9F2"/>
<path d="M252.897 407.657V419.851H251.178V409.161H248.47V407.644L252.897 407.657Z" fill="#DDE9F2"/>
<path d="M255.565 413.754C255.565 409.785 257.69 407.522 260.547 407.522C263.404 407.522 265.516 409.785 265.516 413.754C265.516 417.724 263.39 420 260.547 420C257.704 420 255.565 417.697 255.565 413.754ZM263.769 413.754C263.769 410.638 262.415 409.067 260.547 409.067C258.679 409.067 257.311 410.638 257.311 413.754C257.311 416.87 258.665 418.442 260.547 418.442C262.429 418.442 263.769 416.884 263.769 413.754Z" fill="#DDE9F2"/>
<path d="M270.918 407.657V419.851H269.266V409.161H266.558V407.644L270.918 407.657Z" fill="#DDE9F2"/>
<path d="M273.585 413.754C273.585 409.785 275.711 407.522 278.567 407.522C281.424 407.522 283.523 409.785 283.523 413.754C283.523 417.724 281.397 420 278.567 420C275.738 420 273.585 417.697 273.585 413.754ZM281.79 413.754C281.79 410.638 280.436 409.067 278.567 409.067C276.699 409.067 275.318 410.638 275.318 413.754C275.318 416.87 276.672 418.442 278.567 418.442C280.463 418.442 281.79 416.884 281.79 413.754Z" fill="#DDE9F2"/>
<path d="M288.925 407.657V419.851H287.205V409.161H284.498V407.644L288.925 407.657Z" fill="#DDE9F2"/>
<path d="M40.4554 195.232C40.4554 190.233 43.1632 187.388 46.7105 187.388C50.2577 187.388 52.952 190.233 52.952 195.232C52.952 200.232 50.2442 203.063 46.7105 203.063C43.1768 203.063 40.4554 200.218 40.4554 195.232ZM50.7586 195.232C50.7586 191.317 49.0933 189.339 46.6969 189.339C44.3005 189.339 42.6352 191.317 42.6352 195.232C42.6352 199.148 44.3005 201.126 46.6969 201.126C49.0933 201.126 50.7316 199.148 50.7316 195.232H50.7586Z" fill="#DDE9F2"/>
<path d="M55.0236 195.232C55.0236 190.233 57.7314 187.388 61.2922 187.388C64.853 187.388 67.5202 190.233 67.5202 195.232C67.5202 200.232 64.8124 203.063 61.2922 203.063C57.7721 203.063 55.0236 200.218 55.0236 195.232ZM65.3269 195.232C65.3269 191.317 63.6751 189.339 61.2651 189.339C58.8552 189.339 57.2034 191.317 57.2034 195.232C57.2034 199.148 58.8687 201.126 61.2651 201.126C63.6616 201.126 65.3269 199.148 65.3269 195.232Z" fill="#DDE9F2"/>
<path d="M74.3031 187.564V202.887H72.1369V189.474H68.6844V187.564H74.3031Z" fill="#DDE9F2"/>
<path d="M77.6609 195.232C77.6609 190.233 80.3687 187.388 83.9159 187.388C87.4631 187.388 90.1574 190.233 90.1574 195.232C90.1574 200.232 87.4496 203.063 83.9159 203.063C80.3822 203.063 77.6609 200.218 77.6609 195.232ZM87.9641 195.232C87.9641 191.317 86.3124 189.339 83.9025 189.339C81.4925 189.339 79.8406 191.317 79.8406 195.232C79.8406 199.148 81.506 201.126 83.9025 201.126C86.2989 201.126 87.9641 199.148 87.9641 195.232Z" fill="#DDE9F2"/>
<path d="M96.9405 187.564V202.887H94.7742V189.474H91.3217V187.564H96.9405Z" fill="#DDE9F2"/>
<path d="M105.051 187.564V202.887H102.884V189.474H99.4182V187.564H105.051Z" fill="#DDE9F2"/>
<path d="M108.395 195.232C108.395 190.233 111.103 187.388 114.65 187.388C118.197 187.388 120.891 190.233 120.891 195.232C120.891 200.232 118.184 203.063 114.65 203.063C111.116 203.063 108.395 200.218 108.395 195.232ZM118.698 195.232C118.698 191.317 117.046 189.339 114.636 189.339C112.226 189.339 110.575 191.317 110.575 195.232C110.575 199.148 112.24 201.126 114.636 201.126C117.033 201.126 118.698 199.148 118.698 195.232Z" fill="#DDE9F2"/>
<path d="M123.044 195.232C123.044 190.233 125.752 187.388 129.299 187.388C132.846 187.388 135.527 190.233 135.527 195.232C135.527 200.232 132.819 203.063 129.299 203.063C125.779 203.063 123.044 200.218 123.044 195.232ZM133.347 195.232C133.347 191.317 131.682 189.339 129.286 189.339C126.889 189.339 125.224 191.317 125.224 195.232C125.224 199.148 126.889 201.126 129.286 201.126C131.682 201.126 133.307 199.148 133.307 195.232H133.347Z" fill="#DDE9F2"/>
<path d="M137.599 195.232C137.599 190.233 140.307 187.388 143.854 187.388C147.401 187.388 150.095 190.233 150.095 195.232C150.095 200.232 147.388 203.063 143.854 203.063C140.32 203.063 137.599 200.218 137.599 195.232ZM147.902 195.232C147.902 191.317 146.25 189.339 143.84 189.339C141.43 189.339 139.779 191.317 139.779 195.232C139.779 199.148 141.444 201.126 143.84 201.126C146.237 201.126 147.902 199.148 147.902 195.232Z" fill="#DDE9F2"/>
<path d="M156.892 187.564V202.887H154.726V189.474H151.273V187.564H156.892Z" fill="#DDE9F2"/>
<path d="M160.236 195.232C160.236 190.233 162.944 187.388 166.491 187.388C170.038 187.388 172.733 190.233 172.733 195.232C172.733 200.232 170.025 203.063 166.491 203.063C162.957 203.063 160.236 200.218 160.236 195.232ZM170.539 195.232C170.539 191.317 168.874 189.339 166.478 189.339C164.081 189.339 162.416 191.317 162.416 195.232C162.416 199.148 164.081 201.126 166.478 201.126C168.874 201.126 170.539 199.148 170.539 195.232Z" fill="#DDE9F2"/>
<path d="M179.516 187.564V202.887H177.349V189.474H173.897V187.564H179.516Z" fill="#DDE9F2"/>
<path d="M281.858 213.252C281.858 208.252 284.565 205.407 288.113 205.407C291.66 205.407 294.354 208.252 294.354 213.252C294.354 218.251 291.646 221.083 288.113 221.083C284.579 221.083 281.858 218.238 281.858 213.252ZM292.161 213.252C292.161 209.323 290.495 207.358 288.099 207.358C285.703 207.358 284.037 209.323 284.037 213.252C284.037 217.181 285.703 219.132 288.099 219.132C290.495 219.132 292.161 217.181 292.161 213.252Z" fill="#DDE9F2"/>
<path d="M301.137 205.583V220.906H298.971V207.494H295.518V205.583H301.137Z" fill="#DDE9F2"/>
<path d="M309.234 205.583V220.906H307.067V207.494H303.615V205.583H309.234Z" fill="#DDE9F2"/>
<path d="M312.591 213.252C312.591 208.252 315.299 205.407 318.846 205.407C322.393 205.407 325.088 208.252 325.088 213.252C325.088 218.251 322.38 221.083 318.846 221.083C315.313 221.083 312.591 218.238 312.591 213.252ZM322.894 213.252C322.894 209.323 321.229 207.358 318.833 207.358C316.436 207.358 314.771 209.323 314.771 213.252C314.771 217.181 316.423 219.132 318.833 219.132C321.243 219.132 322.894 217.181 322.894 213.252Z" fill="#DDE9F2"/>
<path d="M327.186 213.252C327.186 208.252 329.894 205.407 333.455 205.407C337.016 205.407 339.683 208.252 339.683 213.252C339.683 218.251 336.975 221.083 333.455 221.083C329.935 221.083 327.186 218.238 327.186 213.252ZM337.503 213.252C337.503 209.323 335.838 207.358 333.441 207.358C331.045 207.358 329.38 209.323 329.38 213.252C329.38 217.181 331.045 219.132 333.441 219.132C335.838 219.132 337.503 217.181 337.503 213.252Z" fill="#DDE9F2"/>
<path d="M341.795 213.252C341.795 208.252 344.503 205.407 348.05 205.407C351.597 205.407 354.292 208.252 354.292 213.252C354.292 218.251 351.584 221.083 348.05 221.083C344.516 221.083 341.795 218.238 341.795 213.252ZM352.098 213.252C352.098 209.323 350.433 207.358 348.037 207.358C345.64 207.358 343.975 209.323 343.975 213.252C343.975 217.181 345.64 219.132 348.037 219.132C350.433 219.132 352.098 217.181 352.098 213.252Z" fill="#DDE9F2"/>
<path d="M394.909 29.3324C394.909 30.0559 394.694 30.7631 394.293 31.3647C393.891 31.9662 393.32 32.4351 392.652 32.7119C391.984 32.9888 391.249 33.0613 390.54 32.9201C389.831 32.779 389.18 32.4306 388.668 31.919C388.157 31.4074 387.809 30.7556 387.668 30.046C387.527 29.3364 387.599 28.6009 387.876 27.9325C388.153 27.264 388.621 26.6927 389.222 26.2908C389.824 25.8888 390.53 25.6743 391.253 25.6743C392.223 25.6743 393.153 26.0597 393.838 26.7457C394.524 27.4317 394.909 28.3622 394.909 29.3324Z" fill="#DDE9F2"/>
<path d="M410.722 29.3324C410.725 30.0597 410.512 30.7714 410.11 31.3773C409.708 31.9832 409.135 32.4559 408.464 32.7354C407.793 33.015 407.054 33.0889 406.341 32.9476C405.628 32.8064 404.973 32.4564 404.459 31.9421C403.945 31.4278 403.595 30.7724 403.454 30.0589C403.313 29.3454 403.387 28.606 403.666 27.9346C403.946 27.2631 404.418 26.6899 405.023 26.2874C405.629 25.885 406.34 25.6716 407.067 25.6743C408.036 25.6743 408.966 26.0597 409.652 26.7457C410.337 27.4317 410.722 28.3622 410.722 29.3324Z" fill="#DDE9F2"/>
<path d="M428.039 29.3325C428.039 30.3561 427.736 31.3568 427.167 32.2079C426.599 33.059 425.791 33.7223 424.846 34.1141C423.901 34.5058 422.861 34.6083 421.858 34.4086C420.855 34.2089 419.933 33.7159 419.21 32.9921C418.487 32.2683 417.994 31.3462 417.794 30.3422C417.595 29.3383 417.697 28.2977 418.089 27.352C418.48 26.4063 419.143 25.598 419.994 25.0293C420.844 24.4606 421.844 24.157 422.867 24.157C424.239 24.157 425.554 24.7023 426.524 25.6729C427.494 26.6435 428.039 27.9599 428.039 29.3325Z" fill="#DDE9F2"/>
<path d="M442.336 29.3324C442.339 30.0597 442.126 30.7714 441.723 31.3773C441.321 31.9832 440.748 32.4559 440.077 32.7354C439.407 33.015 438.668 33.0889 437.955 32.9476C437.242 32.8064 436.587 32.4564 436.073 31.9421C435.559 31.4278 435.209 30.7724 435.068 30.0589C434.927 29.3454 435.001 28.606 435.28 27.9346C435.559 27.2631 436.032 26.6899 436.637 26.2874C437.243 25.885 437.954 25.6716 438.681 25.6743C439.65 25.6743 440.58 26.0597 441.266 26.7457C441.951 27.4317 442.336 28.3622 442.336 29.3324Z" fill="#DDE9F2"/>
<path d="M176.93 358.314C176.927 357.587 177.14 356.876 177.541 356.271C177.943 355.665 178.515 355.192 179.185 354.912C179.855 354.632 180.594 354.558 181.306 354.698C182.019 354.838 182.674 355.187 183.188 355.7C183.703 356.213 184.054 356.867 184.196 357.579C184.339 358.292 184.267 359.031 183.99 359.703C183.713 360.374 183.242 360.948 182.639 361.353C182.035 361.757 181.325 361.972 180.599 361.972C180.118 361.974 179.641 361.881 179.196 361.698C178.751 361.515 178.346 361.245 178.005 360.906C177.664 360.566 177.394 360.162 177.209 359.717C177.025 359.273 176.93 358.796 176.93 358.314Z" fill="#DDE9F2"/>
<path d="M161.13 358.314C161.13 357.591 161.344 356.883 161.746 356.282C162.147 355.68 162.718 355.211 163.386 354.935C164.054 354.658 164.789 354.585 165.498 354.726C166.207 354.868 166.859 355.216 167.37 355.728C167.881 356.239 168.229 356.891 168.37 357.601C168.512 358.31 168.439 359.046 168.162 359.714C167.886 360.382 167.417 360.954 166.816 361.356C166.215 361.758 165.508 361.972 164.785 361.972C163.816 361.972 162.886 361.587 162.2 360.901C161.515 360.215 161.13 359.284 161.13 358.314Z" fill="#DDE9F2"/>
<path d="M143.813 358.314C143.813 357.291 144.116 356.29 144.685 355.439C145.253 354.588 146.061 353.924 147.006 353.533C147.951 353.141 148.991 353.038 149.994 353.238C150.997 353.438 151.919 353.931 152.642 354.655C153.365 355.378 153.858 356.301 154.058 357.304C154.257 358.308 154.155 359.349 153.763 360.295C153.372 361.24 152.709 362.049 151.858 362.617C151.008 363.186 150.008 363.49 148.985 363.49C147.613 363.49 146.298 362.944 145.328 361.974C144.358 361.003 143.813 359.687 143.813 358.314Z" fill="#DDE9F2"/>
<path d="M129.516 358.314C129.513 357.587 129.726 356.875 130.129 356.269C130.531 355.663 131.104 355.191 131.775 354.911C132.446 354.632 133.184 354.558 133.897 354.699C134.61 354.84 135.265 355.19 135.779 355.705C136.293 356.219 136.643 356.874 136.784 357.588C136.925 358.301 136.852 359.041 136.572 359.712C136.293 360.383 135.82 360.957 135.215 361.359C134.61 361.762 133.898 361.975 133.171 361.972C132.202 361.972 131.272 361.587 130.587 360.901C129.901 360.215 129.516 359.284 129.516 358.314Z" fill="#DDE9F2"/>
<path d="M366.03 224.199H359.816V227.87H366.03V224.199Z" fill="#55738E"/>
<path d="M366.03 217.302H359.816V220.974H366.03V217.302Z" fill="#55738E"/>
<path d="M366.03 210.406H359.816V214.078H366.03V210.406Z" fill="#55738E"/>
<path d="M366.03 203.51H359.816V207.182H366.03V203.51Z" fill="#55738E"/>
<path d="M366.03 196.614H359.816V200.286H366.03V196.614Z" fill="#55738E"/>
<path d="M366.03 189.718H359.816V193.39H366.03V189.718Z" fill="#55738E"/>
<path d="M366.03 182.822H359.816V186.494H366.03V182.822Z" fill="#55738E"/>
<path d="M366.03 175.926H359.816V179.597H366.03V175.926Z" fill="#55738E"/>
<path d="M366.03 169.03H359.816V172.701H366.03V169.03Z" fill="#55738E"/>
<path d="M366.03 162.134H359.816V165.805H366.03V162.134Z" fill="#55738E"/>
<path d="M279.028 224.199H272.813V227.87H279.028V224.199Z" fill="#55738E"/>
<path d="M279.028 217.302H272.813V220.974H279.028V217.302Z" fill="#55738E"/>
<path d="M279.028 210.406H272.813V214.078H279.028V210.406Z" fill="#55738E"/>
<path d="M279.028 203.51H272.813V207.182H279.028V203.51Z" fill="#55738E"/>
<path d="M279.028 196.614H272.813V200.286H279.028V196.614Z" fill="#55738E"/>
<path d="M279.028 189.718H272.813V193.39H279.028V189.718Z" fill="#55738E"/>
<path d="M279.028 182.822H272.813V186.494H279.028V182.822Z" fill="#55738E"/>
<path d="M279.028 175.926H272.813V179.597H279.028V175.926Z" fill="#55738E"/>
<path d="M279.028 169.03H272.813V172.701H279.028V169.03Z" fill="#55738E"/>
<path d="M279.028 162.134H272.813V165.805H279.028V162.134Z" fill="#55738E"/>
<path d="M192.012 224.199H185.798V227.87H192.012V224.199Z" fill="#55738E"/>
<path d="M192.012 217.302H185.798V220.974H192.012V217.302Z" fill="#55738E"/>
<path d="M192.012 210.406H185.798V214.078H192.012V210.406Z" fill="#55738E"/>
<path d="M192.012 203.51H185.798V207.182H192.012V203.51Z" fill="#55738E"/>
<path d="M192.012 196.614H185.798V200.286H192.012V196.614Z" fill="#55738E"/>
<path d="M192.012 189.718H185.798V193.39H192.012V189.718Z" fill="#55738E"/>
<path d="M192.012 182.822H185.798V186.494H192.012V182.822Z" fill="#55738E"/>
<path d="M192.012 175.926H185.798V179.597H192.012V175.926Z" fill="#55738E"/>
<path d="M192.012 169.03H185.798V172.701H192.012V169.03Z" fill="#55738E"/>
<path d="M192.012 162.134H185.798V165.805H192.012V162.134Z" fill="#55738E"/>
</svg>
